<mxfile host="Electron" agent="Mozilla/5.0 (Windows NT 10.0; Win64; x64) AppleWebKit/537.36 (KHTML, like Gecko) draw.io/27.0.9 Chrome/134.0.6998.205 Electron/35.4.0 Safari/537.36" version="27.0.9">
  <diagram name="Page-1" id="tN5K2Nhks3WNrbRtYstL">
    <mxGraphModel dx="-2690" dy="4600" grid="1" gridSize="10" guides="1" tooltips="1" connect="1" arrows="1" fold="1" page="1" pageScale="1" pageWidth="850" pageHeight="1100" math="0" shadow="0">
      <root>
        <mxCell id="0" />
        <mxCell id="1" parent="0" />
        <mxCell id="FoQC7-eRkNToFo1l5HI7-1" value="" style="swimlane;startSize=0;shadow=0;" parent="1" vertex="1">
          <mxGeometry x="11440" y="-170" width="720" height="630" as="geometry" />
        </mxCell>
        <mxCell id="FoQC7-eRkNToFo1l5HI7-2" value="M" style="edgeStyle=orthogonalEdgeStyle;rounded=0;orthogonalLoop=1;jettySize=auto;html=1;shape=link;" parent="FoQC7-eRkNToFo1l5HI7-1" source="FoQC7-eRkNToFo1l5HI7-25" target="FoQC7-eRkNToFo1l5HI7-27" edge="1">
          <mxGeometry x="0.7857" y="10" relative="1" as="geometry">
            <mxPoint as="offset" />
          </mxGeometry>
        </mxCell>
        <mxCell id="FoQC7-eRkNToFo1l5HI7-3" value="" style="edgeStyle=orthogonalEdgeStyle;rounded=0;orthogonalLoop=1;jettySize=auto;html=1;" parent="FoQC7-eRkNToFo1l5HI7-1" source="FoQC7-eRkNToFo1l5HI7-25" target="FoQC7-eRkNToFo1l5HI7-49" edge="1">
          <mxGeometry relative="1" as="geometry">
            <mxPoint x="519.9999999999991" y="110" as="targetPoint" />
          </mxGeometry>
        </mxCell>
        <mxCell id="FoQC7-eRkNToFo1l5HI7-4" value="" style="edgeStyle=orthogonalEdgeStyle;rounded=0;orthogonalLoop=1;jettySize=auto;html=1;" parent="FoQC7-eRkNToFo1l5HI7-1" source="FoQC7-eRkNToFo1l5HI7-25" target="FoQC7-eRkNToFo1l5HI7-28" edge="1">
          <mxGeometry relative="1" as="geometry" />
        </mxCell>
        <mxCell id="FoQC7-eRkNToFo1l5HI7-5" value="" style="edgeStyle=orthogonalEdgeStyle;rounded=0;orthogonalLoop=1;jettySize=auto;html=1;" parent="FoQC7-eRkNToFo1l5HI7-1" source="FoQC7-eRkNToFo1l5HI7-25" target="FoQC7-eRkNToFo1l5HI7-29" edge="1">
          <mxGeometry relative="1" as="geometry" />
        </mxCell>
        <mxCell id="FoQC7-eRkNToFo1l5HI7-6" value="" style="edgeStyle=orthogonalEdgeStyle;rounded=0;orthogonalLoop=1;jettySize=auto;html=1;" parent="FoQC7-eRkNToFo1l5HI7-1" source="FoQC7-eRkNToFo1l5HI7-25" target="FoQC7-eRkNToFo1l5HI7-30" edge="1">
          <mxGeometry relative="1" as="geometry" />
        </mxCell>
        <mxCell id="FoQC7-eRkNToFo1l5HI7-7" value="" style="edgeStyle=orthogonalEdgeStyle;rounded=0;orthogonalLoop=1;jettySize=auto;html=1;" parent="FoQC7-eRkNToFo1l5HI7-1" source="FoQC7-eRkNToFo1l5HI7-25" target="FoQC7-eRkNToFo1l5HI7-32" edge="1">
          <mxGeometry relative="1" as="geometry">
            <Array as="points">
              <mxPoint x="520" y="290" />
            </Array>
          </mxGeometry>
        </mxCell>
        <mxCell id="FoQC7-eRkNToFo1l5HI7-8" value="" style="edgeStyle=orthogonalEdgeStyle;rounded=0;orthogonalLoop=1;jettySize=auto;html=1;" parent="FoQC7-eRkNToFo1l5HI7-1" source="FoQC7-eRkNToFo1l5HI7-25" target="FoQC7-eRkNToFo1l5HI7-33" edge="1">
          <mxGeometry relative="1" as="geometry">
            <Array as="points">
              <mxPoint x="690" y="265" />
              <mxPoint x="690" y="450" />
            </Array>
          </mxGeometry>
        </mxCell>
        <mxCell id="FoQC7-eRkNToFo1l5HI7-9" value="" style="edgeStyle=orthogonalEdgeStyle;rounded=0;orthogonalLoop=1;jettySize=auto;html=1;" parent="FoQC7-eRkNToFo1l5HI7-1" source="FoQC7-eRkNToFo1l5HI7-25" target="FoQC7-eRkNToFo1l5HI7-34" edge="1">
          <mxGeometry relative="1" as="geometry" />
        </mxCell>
        <mxCell id="FoQC7-eRkNToFo1l5HI7-10" value="" style="edgeStyle=orthogonalEdgeStyle;rounded=0;orthogonalLoop=1;jettySize=auto;html=1;" parent="FoQC7-eRkNToFo1l5HI7-1" source="FoQC7-eRkNToFo1l5HI7-25" target="FoQC7-eRkNToFo1l5HI7-35" edge="1">
          <mxGeometry relative="1" as="geometry" />
        </mxCell>
        <mxCell id="FoQC7-eRkNToFo1l5HI7-11" value="" style="edgeStyle=orthogonalEdgeStyle;rounded=0;orthogonalLoop=1;jettySize=auto;html=1;" parent="FoQC7-eRkNToFo1l5HI7-1" source="FoQC7-eRkNToFo1l5HI7-25" target="FoQC7-eRkNToFo1l5HI7-36" edge="1">
          <mxGeometry relative="1" as="geometry" />
        </mxCell>
        <mxCell id="FoQC7-eRkNToFo1l5HI7-12" value="" style="edgeStyle=orthogonalEdgeStyle;rounded=0;orthogonalLoop=1;jettySize=auto;html=1;" parent="FoQC7-eRkNToFo1l5HI7-1" source="FoQC7-eRkNToFo1l5HI7-25" target="FoQC7-eRkNToFo1l5HI7-37" edge="1">
          <mxGeometry relative="1" as="geometry" />
        </mxCell>
        <mxCell id="FoQC7-eRkNToFo1l5HI7-13" value="" style="edgeStyle=orthogonalEdgeStyle;rounded=0;orthogonalLoop=1;jettySize=auto;html=1;" parent="FoQC7-eRkNToFo1l5HI7-1" source="FoQC7-eRkNToFo1l5HI7-25" target="FoQC7-eRkNToFo1l5HI7-38" edge="1">
          <mxGeometry relative="1" as="geometry" />
        </mxCell>
        <mxCell id="FoQC7-eRkNToFo1l5HI7-14" value="" style="edgeStyle=orthogonalEdgeStyle;rounded=0;orthogonalLoop=1;jettySize=auto;html=1;" parent="FoQC7-eRkNToFo1l5HI7-1" source="FoQC7-eRkNToFo1l5HI7-25" target="FoQC7-eRkNToFo1l5HI7-39" edge="1">
          <mxGeometry relative="1" as="geometry" />
        </mxCell>
        <mxCell id="FoQC7-eRkNToFo1l5HI7-15" value="" style="edgeStyle=orthogonalEdgeStyle;rounded=0;orthogonalLoop=1;jettySize=auto;html=1;" parent="FoQC7-eRkNToFo1l5HI7-1" source="FoQC7-eRkNToFo1l5HI7-25" target="FoQC7-eRkNToFo1l5HI7-40" edge="1">
          <mxGeometry relative="1" as="geometry" />
        </mxCell>
        <mxCell id="FoQC7-eRkNToFo1l5HI7-16" value="" style="edgeStyle=orthogonalEdgeStyle;rounded=0;orthogonalLoop=1;jettySize=auto;html=1;" parent="FoQC7-eRkNToFo1l5HI7-1" source="FoQC7-eRkNToFo1l5HI7-25" target="FoQC7-eRkNToFo1l5HI7-41" edge="1">
          <mxGeometry relative="1" as="geometry" />
        </mxCell>
        <mxCell id="FoQC7-eRkNToFo1l5HI7-17" value="" style="edgeStyle=orthogonalEdgeStyle;rounded=0;orthogonalLoop=1;jettySize=auto;html=1;" parent="FoQC7-eRkNToFo1l5HI7-1" source="FoQC7-eRkNToFo1l5HI7-25" target="FoQC7-eRkNToFo1l5HI7-42" edge="1">
          <mxGeometry relative="1" as="geometry" />
        </mxCell>
        <mxCell id="FoQC7-eRkNToFo1l5HI7-18" value="" style="edgeStyle=orthogonalEdgeStyle;rounded=0;orthogonalLoop=1;jettySize=auto;html=1;" parent="FoQC7-eRkNToFo1l5HI7-1" source="FoQC7-eRkNToFo1l5HI7-25" target="FoQC7-eRkNToFo1l5HI7-43" edge="1">
          <mxGeometry relative="1" as="geometry" />
        </mxCell>
        <mxCell id="FoQC7-eRkNToFo1l5HI7-19" value="" style="edgeStyle=orthogonalEdgeStyle;rounded=0;orthogonalLoop=1;jettySize=auto;html=1;" parent="FoQC7-eRkNToFo1l5HI7-1" source="FoQC7-eRkNToFo1l5HI7-25" target="FoQC7-eRkNToFo1l5HI7-44" edge="1">
          <mxGeometry relative="1" as="geometry" />
        </mxCell>
        <mxCell id="FoQC7-eRkNToFo1l5HI7-20" value="" style="edgeStyle=orthogonalEdgeStyle;rounded=0;orthogonalLoop=1;jettySize=auto;html=1;" parent="FoQC7-eRkNToFo1l5HI7-1" source="FoQC7-eRkNToFo1l5HI7-25" target="FoQC7-eRkNToFo1l5HI7-45" edge="1">
          <mxGeometry relative="1" as="geometry" />
        </mxCell>
        <mxCell id="FoQC7-eRkNToFo1l5HI7-21" value="" style="edgeStyle=orthogonalEdgeStyle;rounded=0;orthogonalLoop=1;jettySize=auto;html=1;" parent="FoQC7-eRkNToFo1l5HI7-1" source="FoQC7-eRkNToFo1l5HI7-25" target="FoQC7-eRkNToFo1l5HI7-46" edge="1">
          <mxGeometry relative="1" as="geometry" />
        </mxCell>
        <mxCell id="FoQC7-eRkNToFo1l5HI7-22" value="" style="edgeStyle=orthogonalEdgeStyle;rounded=0;orthogonalLoop=1;jettySize=auto;html=1;" parent="FoQC7-eRkNToFo1l5HI7-1" source="FoQC7-eRkNToFo1l5HI7-25" target="FoQC7-eRkNToFo1l5HI7-47" edge="1">
          <mxGeometry relative="1" as="geometry" />
        </mxCell>
        <mxCell id="FoQC7-eRkNToFo1l5HI7-23" value="" style="edgeStyle=orthogonalEdgeStyle;rounded=0;orthogonalLoop=1;jettySize=auto;html=1;" parent="FoQC7-eRkNToFo1l5HI7-1" source="FoQC7-eRkNToFo1l5HI7-25" target="FoQC7-eRkNToFo1l5HI7-48" edge="1">
          <mxGeometry relative="1" as="geometry" />
        </mxCell>
        <mxCell id="FoQC7-eRkNToFo1l5HI7-24" style="edgeStyle=orthogonalEdgeStyle;rounded=0;orthogonalLoop=1;jettySize=auto;html=1;" parent="FoQC7-eRkNToFo1l5HI7-1" source="FoQC7-eRkNToFo1l5HI7-25" target="FoQC7-eRkNToFo1l5HI7-51" edge="1">
          <mxGeometry relative="1" as="geometry">
            <Array as="points">
              <mxPoint x="700" y="265" />
              <mxPoint x="700" y="540" />
            </Array>
          </mxGeometry>
        </mxCell>
        <mxCell id="FoQC7-eRkNToFo1l5HI7-25" value="&lt;b&gt;&lt;font style=&quot;font-size: 22px;&quot;&gt;users&lt;/font&gt;&lt;/b&gt;&lt;div&gt;&lt;span style=&quot;font-size: 22px;&quot;&gt;&lt;b&gt;(کاربر)&lt;/b&gt;&lt;/span&gt;&lt;/div&gt;" style="whiteSpace=wrap;html=1;align=center;" parent="FoQC7-eRkNToFo1l5HI7-1" vertex="1">
          <mxGeometry x="230" y="230" width="240" height="70" as="geometry" />
        </mxCell>
        <mxCell id="FoQC7-eRkNToFo1l5HI7-26" style="edgeStyle=orthogonalEdgeStyle;rounded=0;orthogonalLoop=1;jettySize=auto;html=1;" parent="FoQC7-eRkNToFo1l5HI7-1" source="FoQC7-eRkNToFo1l5HI7-27" target="FoQC7-eRkNToFo1l5HI7-50" edge="1">
          <mxGeometry relative="1" as="geometry" />
        </mxCell>
        <mxCell id="FoQC7-eRkNToFo1l5HI7-27" value="Has&lt;div&gt;(دارد&lt;span data-darkreader-inline-color=&quot;&quot; data-darkreader-inline-bgcolor=&quot;&quot; style=&quot;background-color: transparent; color: light-dark(rgb(0, 0, 0), rgb(255, 255, 255)); --darkreader-inline-bgcolor: transparent; --darkreader-inline-color: var(--darkreader-text-000000, #1b1b1a);&quot;&gt;)&lt;/span&gt;&lt;/div&gt;" style="shape=rhombus;perimeter=rhombusPerimeter;whiteSpace=wrap;html=1;align=center;" parent="FoQC7-eRkNToFo1l5HI7-1" vertex="1">
          <mxGeometry x="885" y="240" width="120" height="60" as="geometry" />
        </mxCell>
        <mxCell id="FoQC7-eRkNToFo1l5HI7-28" value="email" style="ellipse;whiteSpace=wrap;html=1;" parent="FoQC7-eRkNToFo1l5HI7-1" vertex="1">
          <mxGeometry x="450" y="30" width="80" height="80" as="geometry" />
        </mxCell>
        <mxCell id="FoQC7-eRkNToFo1l5HI7-29" value="password" style="ellipse;whiteSpace=wrap;html=1;" parent="FoQC7-eRkNToFo1l5HI7-1" vertex="1">
          <mxGeometry x="400" y="400" width="80" height="80" as="geometry" />
        </mxCell>
        <mxCell id="FoQC7-eRkNToFo1l5HI7-30" value="profile_pic" style="ellipse;whiteSpace=wrap;html=1;" parent="FoQC7-eRkNToFo1l5HI7-1" vertex="1">
          <mxGeometry x="180" y="30" width="80" height="80" as="geometry" />
        </mxCell>
        <mxCell id="FoQC7-eRkNToFo1l5HI7-31" value="" style="edgeStyle=orthogonalEdgeStyle;rounded=0;orthogonalLoop=1;jettySize=auto;html=1;" parent="FoQC7-eRkNToFo1l5HI7-1" source="FoQC7-eRkNToFo1l5HI7-32" target="FoQC7-eRkNToFo1l5HI7-51" edge="1">
          <mxGeometry relative="1" as="geometry" />
        </mxCell>
        <mxCell id="FoQC7-eRkNToFo1l5HI7-32" value="remember_token" style="ellipse;whiteSpace=wrap;html=1;" parent="FoQC7-eRkNToFo1l5HI7-1" vertex="1">
          <mxGeometry x="580" y="310" width="110" height="80" as="geometry" />
        </mxCell>
        <mxCell id="FoQC7-eRkNToFo1l5HI7-33" value="sex" style="ellipse;whiteSpace=wrap;html=1;" parent="FoQC7-eRkNToFo1l5HI7-1" vertex="1">
          <mxGeometry x="595" y="410" width="80" height="80" as="geometry" />
        </mxCell>
        <mxCell id="FoQC7-eRkNToFo1l5HI7-34" value="email_verified_at" style="ellipse;whiteSpace=wrap;html=1;" parent="FoQC7-eRkNToFo1l5HI7-1" vertex="1">
          <mxGeometry x="320" y="30" width="130" height="80" as="geometry" />
        </mxCell>
        <mxCell id="FoQC7-eRkNToFo1l5HI7-35" value="first_name" style="ellipse;whiteSpace=wrap;html=1;" parent="FoQC7-eRkNToFo1l5HI7-1" vertex="1">
          <mxGeometry x="100" y="30" width="80" height="80" as="geometry" />
        </mxCell>
        <mxCell id="FoQC7-eRkNToFo1l5HI7-36" value="last_name" style="ellipse;whiteSpace=wrap;html=1;" parent="FoQC7-eRkNToFo1l5HI7-1" vertex="1">
          <mxGeometry x="20" y="40" width="80" height="80" as="geometry" />
        </mxCell>
        <mxCell id="FoQC7-eRkNToFo1l5HI7-37" value="father_name" style="ellipse;whiteSpace=wrap;html=1;" parent="FoQC7-eRkNToFo1l5HI7-1" vertex="1">
          <mxGeometry x="20" y="380" width="80" height="80" as="geometry" />
        </mxCell>
        <mxCell id="FoQC7-eRkNToFo1l5HI7-38" value="national_id" style="ellipse;whiteSpace=wrap;html=1;" parent="FoQC7-eRkNToFo1l5HI7-1" vertex="1">
          <mxGeometry x="100" y="380" width="80" height="80" as="geometry" />
        </mxCell>
        <mxCell id="FoQC7-eRkNToFo1l5HI7-39" value="birthday" style="ellipse;whiteSpace=wrap;html=1;" parent="FoQC7-eRkNToFo1l5HI7-1" vertex="1">
          <mxGeometry x="180" y="380" width="100" height="80" as="geometry" />
        </mxCell>
        <mxCell id="FoQC7-eRkNToFo1l5HI7-40" value="phone_number" style="ellipse;whiteSpace=wrap;html=1;" parent="FoQC7-eRkNToFo1l5HI7-1" vertex="1">
          <mxGeometry x="20" y="460" width="80" height="80" as="geometry" />
        </mxCell>
        <mxCell id="FoQC7-eRkNToFo1l5HI7-41" value="personal_photo" style="ellipse;whiteSpace=wrap;html=1;" parent="FoQC7-eRkNToFo1l5HI7-1" vertex="1">
          <mxGeometry x="100" y="460" width="100" height="80" as="geometry" />
        </mxCell>
        <mxCell id="FoQC7-eRkNToFo1l5HI7-42" value="education_level" style="ellipse;whiteSpace=wrap;html=1;" parent="FoQC7-eRkNToFo1l5HI7-1" vertex="1">
          <mxGeometry x="200" y="460" width="100" height="80" as="geometry" />
        </mxCell>
        <mxCell id="FoQC7-eRkNToFo1l5HI7-43" value="education_licence" style="ellipse;whiteSpace=wrap;html=1;" parent="FoQC7-eRkNToFo1l5HI7-1" vertex="1">
          <mxGeometry x="50" y="130" width="120" height="80" as="geometry" />
        </mxCell>
        <mxCell id="FoQC7-eRkNToFo1l5HI7-44" value="identification" style="ellipse;whiteSpace=wrap;html=1;" parent="FoQC7-eRkNToFo1l5HI7-1" vertex="1">
          <mxGeometry x="420" y="480" width="80" height="80" as="geometry" />
        </mxCell>
        <mxCell id="FoQC7-eRkNToFo1l5HI7-45" value="national_card" style="ellipse;whiteSpace=wrap;html=1;" parent="FoQC7-eRkNToFo1l5HI7-1" vertex="1">
          <mxGeometry x="500" y="480" width="80" height="80" as="geometry" />
        </mxCell>
        <mxCell id="FoQC7-eRkNToFo1l5HI7-46" value="address" style="ellipse;whiteSpace=wrap;html=1;" parent="FoQC7-eRkNToFo1l5HI7-1" vertex="1">
          <mxGeometry x="20" y="540" width="80" height="80" as="geometry" />
        </mxCell>
        <mxCell id="FoQC7-eRkNToFo1l5HI7-47" value="created_at" style="ellipse;whiteSpace=wrap;html=1;" parent="FoQC7-eRkNToFo1l5HI7-1" vertex="1">
          <mxGeometry x="100" y="540" width="80" height="80" as="geometry" />
        </mxCell>
        <mxCell id="FoQC7-eRkNToFo1l5HI7-48" value="updated_at" style="ellipse;whiteSpace=wrap;html=1;" parent="FoQC7-eRkNToFo1l5HI7-1" vertex="1">
          <mxGeometry x="180" y="540" width="80" height="80" as="geometry" />
        </mxCell>
        <mxCell id="FoQC7-eRkNToFo1l5HI7-49" value="id" style="strokeWidth=2;html=1;shape=mxgraph.flowchart.sequential_data;whiteSpace=wrap;" parent="FoQC7-eRkNToFo1l5HI7-1" vertex="1">
          <mxGeometry x="540" y="20" width="100" height="100" as="geometry" />
        </mxCell>
        <mxCell id="FoQC7-eRkNToFo1l5HI7-50" value="id" style="shape=tapeData;whiteSpace=wrap;html=1;perimeter=ellipsePerimeter;" parent="FoQC7-eRkNToFo1l5HI7-1" vertex="1">
          <mxGeometry x="805" y="80" width="80" height="80" as="geometry" />
        </mxCell>
        <mxCell id="FoQC7-eRkNToFo1l5HI7-51" value="national_id" style="ellipse;whiteSpace=wrap;html=1;" parent="FoQC7-eRkNToFo1l5HI7-1" vertex="1">
          <mxGeometry x="590" y="500" width="80" height="80" as="geometry" />
        </mxCell>
        <mxCell id="FoQC7-eRkNToFo1l5HI7-52" value="" style="swimlane;startSize=0;" parent="1" vertex="1">
          <mxGeometry x="12760" y="-120" width="440" height="405" as="geometry" />
        </mxCell>
        <mxCell id="FoQC7-eRkNToFo1l5HI7-53" value="created_at" style="ellipse;whiteSpace=wrap;html=1;" parent="FoQC7-eRkNToFo1l5HI7-52" vertex="1">
          <mxGeometry x="50" y="300" width="80" height="80" as="geometry" />
        </mxCell>
        <mxCell id="FoQC7-eRkNToFo1l5HI7-54" value="updated_at" style="ellipse;whiteSpace=wrap;html=1;" parent="FoQC7-eRkNToFo1l5HI7-52" vertex="1">
          <mxGeometry x="330" y="60" width="80" height="80" as="geometry" />
        </mxCell>
        <mxCell id="FoQC7-eRkNToFo1l5HI7-55" value="id" style="shape=tapeData;whiteSpace=wrap;html=1;perimeter=ellipsePerimeter;" parent="FoQC7-eRkNToFo1l5HI7-52" vertex="1">
          <mxGeometry x="70" y="20" width="80" height="80" as="geometry" />
        </mxCell>
        <mxCell id="FoQC7-eRkNToFo1l5HI7-56" value="role" style="ellipse;whiteSpace=wrap;html=1;" parent="FoQC7-eRkNToFo1l5HI7-52" vertex="1">
          <mxGeometry x="210" y="40" width="80" height="80" as="geometry" />
        </mxCell>
        <mxCell id="FoQC7-eRkNToFo1l5HI7-57" value="" style="edgeStyle=orthogonalEdgeStyle;rounded=0;orthogonalLoop=1;jettySize=auto;html=1;" parent="FoQC7-eRkNToFo1l5HI7-52" source="FoQC7-eRkNToFo1l5HI7-61" target="FoQC7-eRkNToFo1l5HI7-55" edge="1">
          <mxGeometry relative="1" as="geometry">
            <mxPoint x="60.00000000000091" y="160" as="targetPoint" />
          </mxGeometry>
        </mxCell>
        <mxCell id="FoQC7-eRkNToFo1l5HI7-58" value="" style="edgeStyle=orthogonalEdgeStyle;rounded=0;orthogonalLoop=1;jettySize=auto;html=1;" parent="FoQC7-eRkNToFo1l5HI7-52" source="FoQC7-eRkNToFo1l5HI7-61" target="FoQC7-eRkNToFo1l5HI7-56" edge="1">
          <mxGeometry relative="1" as="geometry" />
        </mxCell>
        <mxCell id="FoQC7-eRkNToFo1l5HI7-59" value="" style="edgeStyle=orthogonalEdgeStyle;rounded=0;orthogonalLoop=1;jettySize=auto;html=1;" parent="FoQC7-eRkNToFo1l5HI7-52" source="FoQC7-eRkNToFo1l5HI7-61" target="FoQC7-eRkNToFo1l5HI7-53" edge="1">
          <mxGeometry relative="1" as="geometry">
            <Array as="points">
              <mxPoint x="160" y="290" />
              <mxPoint x="90" y="290" />
            </Array>
          </mxGeometry>
        </mxCell>
        <mxCell id="FoQC7-eRkNToFo1l5HI7-60" value="" style="edgeStyle=orthogonalEdgeStyle;rounded=0;orthogonalLoop=1;jettySize=auto;html=1;" parent="FoQC7-eRkNToFo1l5HI7-52" source="FoQC7-eRkNToFo1l5HI7-61" target="FoQC7-eRkNToFo1l5HI7-54" edge="1">
          <mxGeometry relative="1" as="geometry">
            <Array as="points">
              <mxPoint x="160" y="150" />
              <mxPoint x="340" y="150" />
              <mxPoint x="340" y="165" />
              <mxPoint x="370" y="165" />
            </Array>
          </mxGeometry>
        </mxCell>
        <mxCell id="FoQC7-eRkNToFo1l5HI7-61" value="&lt;b&gt;&lt;font style=&quot;font-size: 22px;&quot;&gt;roles&lt;/font&gt;&lt;/b&gt;&lt;div&gt;&lt;b&gt;&lt;font style=&quot;font-size: 22px;&quot;&gt;(نقش)&lt;/font&gt;&lt;/b&gt;&lt;/div&gt;" style="whiteSpace=wrap;html=1;align=center;" parent="FoQC7-eRkNToFo1l5HI7-52" vertex="1">
          <mxGeometry x="40" y="180" width="240" height="70" as="geometry" />
        </mxCell>
        <mxCell id="FoQC7-eRkNToFo1l5HI7-62" value="N" style="rounded=0;orthogonalLoop=1;jettySize=auto;html=1;" parent="1" source="FoQC7-eRkNToFo1l5HI7-27" target="FoQC7-eRkNToFo1l5HI7-61" edge="1">
          <mxGeometry x="-0.8532" y="4" relative="1" as="geometry">
            <mxPoint as="offset" />
          </mxGeometry>
        </mxCell>
        <mxCell id="FoQC7-eRkNToFo1l5HI7-63" value="" style="swimlane;startSize=0;" parent="1" vertex="1">
          <mxGeometry x="11790" y="770" width="510" height="489.66" as="geometry" />
        </mxCell>
        <mxCell id="FoQC7-eRkNToFo1l5HI7-64" value="" style="edgeStyle=orthogonalEdgeStyle;rounded=0;orthogonalLoop=1;jettySize=auto;html=1;" parent="FoQC7-eRkNToFo1l5HI7-63" source="FoQC7-eRkNToFo1l5HI7-74" target="FoQC7-eRkNToFo1l5HI7-81" edge="1">
          <mxGeometry relative="1" as="geometry">
            <Array as="points">
              <mxPoint x="190" y="195" />
              <mxPoint x="190" y="80" />
            </Array>
            <mxPoint x="114.64076995314554" y="80" as="targetPoint" />
          </mxGeometry>
        </mxCell>
        <mxCell id="FoQC7-eRkNToFo1l5HI7-65" value="" style="edgeStyle=orthogonalEdgeStyle;rounded=0;orthogonalLoop=1;jettySize=auto;html=1;" parent="FoQC7-eRkNToFo1l5HI7-63" source="FoQC7-eRkNToFo1l5HI7-74" target="FoQC7-eRkNToFo1l5HI7-75" edge="1">
          <mxGeometry relative="1" as="geometry" />
        </mxCell>
        <mxCell id="FoQC7-eRkNToFo1l5HI7-66" value="" style="edgeStyle=orthogonalEdgeStyle;rounded=0;orthogonalLoop=1;jettySize=auto;html=1;" parent="FoQC7-eRkNToFo1l5HI7-63" source="FoQC7-eRkNToFo1l5HI7-74" target="FoQC7-eRkNToFo1l5HI7-76" edge="1">
          <mxGeometry relative="1" as="geometry">
            <Array as="points">
              <mxPoint x="160" y="195" />
              <mxPoint x="160" y="310" />
            </Array>
          </mxGeometry>
        </mxCell>
        <mxCell id="FoQC7-eRkNToFo1l5HI7-67" value="" style="edgeStyle=orthogonalEdgeStyle;rounded=0;orthogonalLoop=1;jettySize=auto;html=1;" parent="FoQC7-eRkNToFo1l5HI7-63" source="FoQC7-eRkNToFo1l5HI7-74" target="FoQC7-eRkNToFo1l5HI7-77" edge="1">
          <mxGeometry relative="1" as="geometry">
            <Array as="points">
              <mxPoint x="150" y="220" />
              <mxPoint x="150" y="220" />
            </Array>
          </mxGeometry>
        </mxCell>
        <mxCell id="FoQC7-eRkNToFo1l5HI7-68" value="" style="edgeStyle=orthogonalEdgeStyle;rounded=0;orthogonalLoop=1;jettySize=auto;html=1;" parent="FoQC7-eRkNToFo1l5HI7-63" source="FoQC7-eRkNToFo1l5HI7-74" target="FoQC7-eRkNToFo1l5HI7-78" edge="1">
          <mxGeometry relative="1" as="geometry" />
        </mxCell>
        <mxCell id="FoQC7-eRkNToFo1l5HI7-69" value="" style="edgeStyle=orthogonalEdgeStyle;rounded=0;orthogonalLoop=1;jettySize=auto;html=1;" parent="FoQC7-eRkNToFo1l5HI7-63" source="FoQC7-eRkNToFo1l5HI7-74" target="FoQC7-eRkNToFo1l5HI7-79" edge="1">
          <mxGeometry relative="1" as="geometry" />
        </mxCell>
        <mxCell id="FoQC7-eRkNToFo1l5HI7-70" value="" style="edgeStyle=orthogonalEdgeStyle;rounded=0;orthogonalLoop=1;jettySize=auto;html=1;" parent="FoQC7-eRkNToFo1l5HI7-63" source="FoQC7-eRkNToFo1l5HI7-74" target="FoQC7-eRkNToFo1l5HI7-79" edge="1">
          <mxGeometry relative="1" as="geometry" />
        </mxCell>
        <mxCell id="FoQC7-eRkNToFo1l5HI7-71" value="" style="edgeStyle=orthogonalEdgeStyle;rounded=0;orthogonalLoop=1;jettySize=auto;html=1;" parent="FoQC7-eRkNToFo1l5HI7-63" source="FoQC7-eRkNToFo1l5HI7-74" target="FoQC7-eRkNToFo1l5HI7-80" edge="1">
          <mxGeometry relative="1" as="geometry" />
        </mxCell>
        <mxCell id="FoQC7-eRkNToFo1l5HI7-72" value="" style="edgeStyle=orthogonalEdgeStyle;rounded=0;orthogonalLoop=1;jettySize=auto;html=1;" parent="FoQC7-eRkNToFo1l5HI7-63" source="FoQC7-eRkNToFo1l5HI7-74" target="FoQC7-eRkNToFo1l5HI7-80" edge="1">
          <mxGeometry relative="1" as="geometry" />
        </mxCell>
        <mxCell id="FoQC7-eRkNToFo1l5HI7-73" value="" style="edgeStyle=orthogonalEdgeStyle;rounded=0;orthogonalLoop=1;jettySize=auto;html=1;" parent="FoQC7-eRkNToFo1l5HI7-63" source="FoQC7-eRkNToFo1l5HI7-74" target="FoQC7-eRkNToFo1l5HI7-79" edge="1">
          <mxGeometry relative="1" as="geometry" />
        </mxCell>
        <mxCell id="FoQC7-eRkNToFo1l5HI7-74" value="&lt;span style=&quot;font-size: 22px;&quot;&gt;&lt;b&gt;teachers&lt;/b&gt;&lt;/span&gt;&lt;div&gt;&lt;span style=&quot;font-size: 22px;&quot;&gt;&lt;b&gt;(معلم ها)&lt;/b&gt;&lt;/span&gt;&lt;/div&gt;" style="whiteSpace=wrap;html=1;align=center;" parent="FoQC7-eRkNToFo1l5HI7-63" vertex="1">
          <mxGeometry x="215" y="159.65957357821526" width="240" height="70" as="geometry" />
        </mxCell>
        <mxCell id="FoQC7-eRkNToFo1l5HI7-75" value="user_id" style="ellipse;whiteSpace=wrap;html=1;" parent="FoQC7-eRkNToFo1l5HI7-63" vertex="1">
          <mxGeometry x="30" y="99.99957357821526" width="80" height="80" as="geometry" />
        </mxCell>
        <mxCell id="FoQC7-eRkNToFo1l5HI7-76" value="created_at" style="ellipse;whiteSpace=wrap;html=1;" parent="FoQC7-eRkNToFo1l5HI7-63" vertex="1">
          <mxGeometry x="30" y="299.99957357821523" width="80" height="80" as="geometry" />
        </mxCell>
        <mxCell id="FoQC7-eRkNToFo1l5HI7-77" value="updated_at" style="ellipse;whiteSpace=wrap;html=1;" parent="FoQC7-eRkNToFo1l5HI7-63" vertex="1">
          <mxGeometry x="20" y="189.99957357821526" width="80" height="80" as="geometry" />
        </mxCell>
        <mxCell id="FoQC7-eRkNToFo1l5HI7-78" value="active" style="ellipse;whiteSpace=wrap;html=1;" parent="FoQC7-eRkNToFo1l5HI7-63" vertex="1">
          <mxGeometry x="135" y="339.9995735782153" width="80" height="80" as="geometry" />
        </mxCell>
        <mxCell id="FoQC7-eRkNToFo1l5HI7-79" value="ttc_score" style="ellipse;whiteSpace=wrap;html=1;" parent="FoQC7-eRkNToFo1l5HI7-63" vertex="1">
          <mxGeometry x="230" y="339.9995735782153" width="80" height="80" as="geometry" />
        </mxCell>
        <mxCell id="FoQC7-eRkNToFo1l5HI7-80" value="ttc_scan" style="ellipse;whiteSpace=wrap;html=1;" parent="FoQC7-eRkNToFo1l5HI7-63" vertex="1">
          <mxGeometry x="384.66" y="339.9995735782153" width="80" height="80" as="geometry" />
        </mxCell>
        <mxCell id="FoQC7-eRkNToFo1l5HI7-81" value="id" style="shape=tapeData;whiteSpace=wrap;html=1;perimeter=ellipsePerimeter;" parent="FoQC7-eRkNToFo1l5HI7-63" vertex="1">
          <mxGeometry x="20" y="10" width="80" height="80" as="geometry" />
        </mxCell>
        <mxCell id="FoQC7-eRkNToFo1l5HI7-82" value="" style="swimlane;startSize=0;" parent="1" vertex="1">
          <mxGeometry x="11176" y="2541" width="450" height="400" as="geometry" />
        </mxCell>
        <mxCell id="FoQC7-eRkNToFo1l5HI7-83" value="" style="edgeStyle=orthogonalEdgeStyle;rounded=0;orthogonalLoop=1;jettySize=auto;html=1;" parent="FoQC7-eRkNToFo1l5HI7-82" source="FoQC7-eRkNToFo1l5HI7-90" target="FoQC7-eRkNToFo1l5HI7-97" edge="1">
          <mxGeometry relative="1" as="geometry">
            <mxPoint x="69.99999999999909" y="140" as="targetPoint" />
          </mxGeometry>
        </mxCell>
        <mxCell id="FoQC7-eRkNToFo1l5HI7-84" value="" style="edgeStyle=orthogonalEdgeStyle;rounded=0;orthogonalLoop=1;jettySize=auto;html=1;" parent="FoQC7-eRkNToFo1l5HI7-82" source="FoQC7-eRkNToFo1l5HI7-90" target="FoQC7-eRkNToFo1l5HI7-91" edge="1">
          <mxGeometry relative="1" as="geometry" />
        </mxCell>
        <mxCell id="FoQC7-eRkNToFo1l5HI7-85" value="" style="edgeStyle=orthogonalEdgeStyle;rounded=0;orthogonalLoop=1;jettySize=auto;html=1;" parent="FoQC7-eRkNToFo1l5HI7-82" source="FoQC7-eRkNToFo1l5HI7-90" target="FoQC7-eRkNToFo1l5HI7-92" edge="1">
          <mxGeometry relative="1" as="geometry" />
        </mxCell>
        <mxCell id="FoQC7-eRkNToFo1l5HI7-86" value="" style="edgeStyle=orthogonalEdgeStyle;rounded=0;orthogonalLoop=1;jettySize=auto;html=1;" parent="FoQC7-eRkNToFo1l5HI7-82" source="FoQC7-eRkNToFo1l5HI7-90" target="FoQC7-eRkNToFo1l5HI7-93" edge="1">
          <mxGeometry relative="1" as="geometry">
            <Array as="points">
              <mxPoint x="200" y="179" />
              <mxPoint x="360" y="179" />
            </Array>
          </mxGeometry>
        </mxCell>
        <mxCell id="FoQC7-eRkNToFo1l5HI7-87" value="" style="edgeStyle=orthogonalEdgeStyle;rounded=0;orthogonalLoop=1;jettySize=auto;html=1;" parent="FoQC7-eRkNToFo1l5HI7-82" source="FoQC7-eRkNToFo1l5HI7-90" target="FoQC7-eRkNToFo1l5HI7-94" edge="1">
          <mxGeometry relative="1" as="geometry" />
        </mxCell>
        <mxCell id="FoQC7-eRkNToFo1l5HI7-88" value="" style="edgeStyle=orthogonalEdgeStyle;rounded=0;orthogonalLoop=1;jettySize=auto;html=1;" parent="FoQC7-eRkNToFo1l5HI7-82" source="FoQC7-eRkNToFo1l5HI7-90" target="FoQC7-eRkNToFo1l5HI7-95" edge="1">
          <mxGeometry relative="1" as="geometry" />
        </mxCell>
        <mxCell id="FoQC7-eRkNToFo1l5HI7-89" value="" style="edgeStyle=orthogonalEdgeStyle;rounded=0;orthogonalLoop=1;jettySize=auto;html=1;" parent="FoQC7-eRkNToFo1l5HI7-82" source="FoQC7-eRkNToFo1l5HI7-90" target="FoQC7-eRkNToFo1l5HI7-96" edge="1">
          <mxGeometry relative="1" as="geometry" />
        </mxCell>
        <mxCell id="FoQC7-eRkNToFo1l5HI7-90" value="&lt;span style=&quot;font-size: 22px;&quot;&gt;&lt;b&gt;books&lt;/b&gt;&lt;/span&gt;&lt;div&gt;&lt;span style=&quot;font-size: 22px;&quot;&gt;&lt;b&gt;(کتاب)&lt;/b&gt;&lt;/span&gt;&lt;/div&gt;" style="whiteSpace=wrap;html=1;align=center;" parent="FoQC7-eRkNToFo1l5HI7-82" vertex="1">
          <mxGeometry x="80" y="190" width="240" height="70" as="geometry" />
        </mxCell>
        <mxCell id="FoQC7-eRkNToFo1l5HI7-91" value="name" style="ellipse;whiteSpace=wrap;html=1;" parent="FoQC7-eRkNToFo1l5HI7-82" vertex="1">
          <mxGeometry x="120" y="50" width="80" height="80" as="geometry" />
        </mxCell>
        <mxCell id="FoQC7-eRkNToFo1l5HI7-92" value="price" style="ellipse;whiteSpace=wrap;html=1;" parent="FoQC7-eRkNToFo1l5HI7-82" vertex="1">
          <mxGeometry x="220" y="50" width="80" height="80" as="geometry" />
        </mxCell>
        <mxCell id="FoQC7-eRkNToFo1l5HI7-93" value="cover" style="ellipse;whiteSpace=wrap;html=1;" parent="FoQC7-eRkNToFo1l5HI7-82" vertex="1">
          <mxGeometry x="320" y="90" width="80" height="80" as="geometry" />
        </mxCell>
        <mxCell id="FoQC7-eRkNToFo1l5HI7-94" value="files" style="ellipse;whiteSpace=wrap;html=1;" parent="FoQC7-eRkNToFo1l5HI7-82" vertex="1">
          <mxGeometry x="120" y="270" width="80" height="80" as="geometry" />
        </mxCell>
        <mxCell id="FoQC7-eRkNToFo1l5HI7-95" value="created_at" style="ellipse;whiteSpace=wrap;html=1;" parent="FoQC7-eRkNToFo1l5HI7-82" vertex="1">
          <mxGeometry x="240" y="270" width="80" height="80" as="geometry" />
        </mxCell>
        <mxCell id="FoQC7-eRkNToFo1l5HI7-96" value="updated_at" style="ellipse;whiteSpace=wrap;html=1;" parent="FoQC7-eRkNToFo1l5HI7-82" vertex="1">
          <mxGeometry x="350" y="200" width="80" height="80" as="geometry" />
        </mxCell>
        <mxCell id="FoQC7-eRkNToFo1l5HI7-97" value="id" style="shape=tapeData;whiteSpace=wrap;html=1;perimeter=ellipsePerimeter;" parent="FoQC7-eRkNToFo1l5HI7-82" vertex="1">
          <mxGeometry x="30" y="60" width="80" height="80" as="geometry" />
        </mxCell>
        <mxCell id="FoQC7-eRkNToFo1l5HI7-98" value="" style="swimlane;startSize=0;" parent="1" vertex="1">
          <mxGeometry x="11630" y="1740" width="650" height="470" as="geometry" />
        </mxCell>
        <mxCell id="FoQC7-eRkNToFo1l5HI7-99" value="" style="edgeStyle=orthogonalEdgeStyle;rounded=0;orthogonalLoop=1;jettySize=auto;html=1;" parent="FoQC7-eRkNToFo1l5HI7-98" source="FoQC7-eRkNToFo1l5HI7-110" target="FoQC7-eRkNToFo1l5HI7-121" edge="1">
          <mxGeometry relative="1" as="geometry">
            <mxPoint x="209.9999999999991" y="135" as="targetPoint" />
          </mxGeometry>
        </mxCell>
        <mxCell id="FoQC7-eRkNToFo1l5HI7-100" value="" style="edgeStyle=orthogonalEdgeStyle;rounded=0;orthogonalLoop=1;jettySize=auto;html=1;" parent="FoQC7-eRkNToFo1l5HI7-98" source="FoQC7-eRkNToFo1l5HI7-110" target="FoQC7-eRkNToFo1l5HI7-111" edge="1">
          <mxGeometry relative="1" as="geometry" />
        </mxCell>
        <mxCell id="FoQC7-eRkNToFo1l5HI7-101" value="" style="edgeStyle=orthogonalEdgeStyle;rounded=0;orthogonalLoop=1;jettySize=auto;html=1;" parent="FoQC7-eRkNToFo1l5HI7-98" source="FoQC7-eRkNToFo1l5HI7-110" target="FoQC7-eRkNToFo1l5HI7-112" edge="1">
          <mxGeometry relative="1" as="geometry">
            <Array as="points">
              <mxPoint x="120" y="210" />
              <mxPoint x="120" y="165" />
            </Array>
          </mxGeometry>
        </mxCell>
        <mxCell id="FoQC7-eRkNToFo1l5HI7-102" value="" style="edgeStyle=orthogonalEdgeStyle;rounded=0;orthogonalLoop=1;jettySize=auto;html=1;" parent="FoQC7-eRkNToFo1l5HI7-98" source="FoQC7-eRkNToFo1l5HI7-110" target="FoQC7-eRkNToFo1l5HI7-113" edge="1">
          <mxGeometry relative="1" as="geometry">
            <Array as="points">
              <mxPoint x="120" y="210" />
              <mxPoint x="120" y="260" />
            </Array>
          </mxGeometry>
        </mxCell>
        <mxCell id="FoQC7-eRkNToFo1l5HI7-103" value="" style="edgeStyle=orthogonalEdgeStyle;rounded=0;orthogonalLoop=1;jettySize=auto;html=1;" parent="FoQC7-eRkNToFo1l5HI7-98" source="FoQC7-eRkNToFo1l5HI7-110" target="FoQC7-eRkNToFo1l5HI7-114" edge="1">
          <mxGeometry relative="1" as="geometry">
            <Array as="points">
              <mxPoint x="120" y="210" />
              <mxPoint x="120" y="355" />
            </Array>
          </mxGeometry>
        </mxCell>
        <mxCell id="FoQC7-eRkNToFo1l5HI7-104" value="" style="edgeStyle=orthogonalEdgeStyle;rounded=0;orthogonalLoop=1;jettySize=auto;html=1;" parent="FoQC7-eRkNToFo1l5HI7-98" source="FoQC7-eRkNToFo1l5HI7-110" target="FoQC7-eRkNToFo1l5HI7-115" edge="1">
          <mxGeometry relative="1" as="geometry" />
        </mxCell>
        <mxCell id="FoQC7-eRkNToFo1l5HI7-105" value="" style="edgeStyle=orthogonalEdgeStyle;rounded=0;orthogonalLoop=1;jettySize=auto;html=1;" parent="FoQC7-eRkNToFo1l5HI7-98" source="FoQC7-eRkNToFo1l5HI7-110" target="FoQC7-eRkNToFo1l5HI7-116" edge="1">
          <mxGeometry relative="1" as="geometry" />
        </mxCell>
        <mxCell id="FoQC7-eRkNToFo1l5HI7-106" value="" style="edgeStyle=orthogonalEdgeStyle;rounded=0;orthogonalLoop=1;jettySize=auto;html=1;" parent="FoQC7-eRkNToFo1l5HI7-98" source="FoQC7-eRkNToFo1l5HI7-110" target="FoQC7-eRkNToFo1l5HI7-117" edge="1">
          <mxGeometry relative="1" as="geometry" />
        </mxCell>
        <mxCell id="FoQC7-eRkNToFo1l5HI7-107" value="" style="edgeStyle=orthogonalEdgeStyle;rounded=0;orthogonalLoop=1;jettySize=auto;html=1;" parent="FoQC7-eRkNToFo1l5HI7-98" source="FoQC7-eRkNToFo1l5HI7-110" target="FoQC7-eRkNToFo1l5HI7-118" edge="1">
          <mxGeometry relative="1" as="geometry" />
        </mxCell>
        <mxCell id="FoQC7-eRkNToFo1l5HI7-108" value="" style="edgeStyle=orthogonalEdgeStyle;rounded=0;orthogonalLoop=1;jettySize=auto;html=1;" parent="FoQC7-eRkNToFo1l5HI7-98" source="FoQC7-eRkNToFo1l5HI7-110" target="FoQC7-eRkNToFo1l5HI7-119" edge="1">
          <mxGeometry relative="1" as="geometry">
            <Array as="points">
              <mxPoint x="260" y="270" />
              <mxPoint x="260" y="270" />
            </Array>
          </mxGeometry>
        </mxCell>
        <mxCell id="FoQC7-eRkNToFo1l5HI7-109" value="" style="edgeStyle=orthogonalEdgeStyle;rounded=0;orthogonalLoop=1;jettySize=auto;html=1;" parent="FoQC7-eRkNToFo1l5HI7-98" source="FoQC7-eRkNToFo1l5HI7-110" target="FoQC7-eRkNToFo1l5HI7-120" edge="1">
          <mxGeometry relative="1" as="geometry" />
        </mxCell>
        <mxCell id="FoQC7-eRkNToFo1l5HI7-110" value="&lt;span style=&quot;font-size: 22px;&quot;&gt;&lt;b&gt;classes&lt;/b&gt;&lt;/span&gt;&lt;div&gt;&lt;span style=&quot;font-size: 22px;&quot;&gt;&lt;b&gt;(کلاس)&lt;/b&gt;&lt;/span&gt;&lt;/div&gt;" style="whiteSpace=wrap;html=1;align=center;" parent="FoQC7-eRkNToFo1l5HI7-98" vertex="1">
          <mxGeometry x="260" y="175" width="240" height="70" as="geometry" />
        </mxCell>
        <mxCell id="FoQC7-eRkNToFo1l5HI7-111" value="teacher_id" style="ellipse;whiteSpace=wrap;html=1;" parent="FoQC7-eRkNToFo1l5HI7-98" vertex="1">
          <mxGeometry x="160" y="10" width="80" height="80" as="geometry" />
        </mxCell>
        <mxCell id="FoQC7-eRkNToFo1l5HI7-112" value="book_id" style="ellipse;whiteSpace=wrap;html=1;" parent="FoQC7-eRkNToFo1l5HI7-98" vertex="1">
          <mxGeometry x="80" y="10" width="80" height="80" as="geometry" />
        </mxCell>
        <mxCell id="FoQC7-eRkNToFo1l5HI7-113" value="base_fee" style="ellipse;whiteSpace=wrap;html=1;" parent="FoQC7-eRkNToFo1l5HI7-98" vertex="1">
          <mxGeometry x="20" y="270" width="80" height="80" as="geometry" />
        </mxCell>
        <mxCell id="FoQC7-eRkNToFo1l5HI7-114" value="teacher_fee" style="ellipse;whiteSpace=wrap;html=1;" parent="FoQC7-eRkNToFo1l5HI7-98" vertex="1">
          <mxGeometry x="40" y="360" width="80" height="80" as="geometry" />
        </mxCell>
        <mxCell id="FoQC7-eRkNToFo1l5HI7-115" value="held_sessions" style="ellipse;whiteSpace=wrap;html=1;" parent="FoQC7-eRkNToFo1l5HI7-98" vertex="1">
          <mxGeometry x="400" y="30" width="80" height="80" as="geometry" />
        </mxCell>
        <mxCell id="FoQC7-eRkNToFo1l5HI7-116" value="&lt;span style=&quot;font-size: 12pt; line-height: 115%; font-family: &amp;quot;Liberation Sans&amp;quot;, serif;&quot;&gt;default_session_count&lt;/span&gt;" style="ellipse;whiteSpace=wrap;html=1;" parent="FoQC7-eRkNToFo1l5HI7-98" vertex="1">
          <mxGeometry x="490" y="30" width="160" height="80" as="geometry" />
        </mxCell>
        <mxCell id="FoQC7-eRkNToFo1l5HI7-117" value="started_at" style="ellipse;whiteSpace=wrap;html=1;" parent="FoQC7-eRkNToFo1l5HI7-98" vertex="1">
          <mxGeometry x="310" y="330" width="80" height="80" as="geometry" />
        </mxCell>
        <mxCell id="FoQC7-eRkNToFo1l5HI7-118" value="ended_at" style="ellipse;whiteSpace=wrap;html=1;" parent="FoQC7-eRkNToFo1l5HI7-98" vertex="1">
          <mxGeometry x="410" y="330" width="80" height="80" as="geometry" />
        </mxCell>
        <mxCell id="FoQC7-eRkNToFo1l5HI7-119" value="created_at" style="ellipse;whiteSpace=wrap;html=1;" parent="FoQC7-eRkNToFo1l5HI7-98" vertex="1">
          <mxGeometry x="220" y="330" width="80" height="80" as="geometry" />
        </mxCell>
        <mxCell id="FoQC7-eRkNToFo1l5HI7-120" value="updated_at" style="ellipse;whiteSpace=wrap;html=1;" parent="FoQC7-eRkNToFo1l5HI7-98" vertex="1">
          <mxGeometry x="130" y="360" width="80" height="80" as="geometry" />
        </mxCell>
        <mxCell id="FoQC7-eRkNToFo1l5HI7-121" value="id" style="shape=tapeData;whiteSpace=wrap;html=1;perimeter=ellipsePerimeter;" parent="FoQC7-eRkNToFo1l5HI7-98" vertex="1">
          <mxGeometry x="250" y="45" width="80" height="80" as="geometry" />
        </mxCell>
        <mxCell id="FoQC7-eRkNToFo1l5HI7-122" value="" style="swimlane;startSize=0;" parent="1" vertex="1">
          <mxGeometry x="11720" y="2570" width="429.45" height="460" as="geometry" />
        </mxCell>
        <mxCell id="FoQC7-eRkNToFo1l5HI7-123" value="" style="edgeStyle=orthogonalEdgeStyle;rounded=0;orthogonalLoop=1;jettySize=auto;html=1;" parent="FoQC7-eRkNToFo1l5HI7-122" source="FoQC7-eRkNToFo1l5HI7-132" target="FoQC7-eRkNToFo1l5HI7-133" edge="1">
          <mxGeometry relative="1" as="geometry" />
        </mxCell>
        <mxCell id="FoQC7-eRkNToFo1l5HI7-124" value="" style="edgeStyle=orthogonalEdgeStyle;rounded=0;orthogonalLoop=1;jettySize=auto;html=1;" parent="FoQC7-eRkNToFo1l5HI7-122" source="FoQC7-eRkNToFo1l5HI7-132" target="FoQC7-eRkNToFo1l5HI7-134" edge="1">
          <mxGeometry relative="1" as="geometry" />
        </mxCell>
        <mxCell id="FoQC7-eRkNToFo1l5HI7-125" value="" style="edgeStyle=orthogonalEdgeStyle;rounded=0;orthogonalLoop=1;jettySize=auto;html=1;" parent="FoQC7-eRkNToFo1l5HI7-122" source="FoQC7-eRkNToFo1l5HI7-132" target="FoQC7-eRkNToFo1l5HI7-134" edge="1">
          <mxGeometry relative="1" as="geometry" />
        </mxCell>
        <mxCell id="FoQC7-eRkNToFo1l5HI7-126" value="" style="edgeStyle=orthogonalEdgeStyle;rounded=0;orthogonalLoop=1;jettySize=auto;html=1;" parent="FoQC7-eRkNToFo1l5HI7-122" source="FoQC7-eRkNToFo1l5HI7-132" target="FoQC7-eRkNToFo1l5HI7-135" edge="1">
          <mxGeometry relative="1" as="geometry" />
        </mxCell>
        <mxCell id="FoQC7-eRkNToFo1l5HI7-127" value="" style="edgeStyle=orthogonalEdgeStyle;rounded=0;orthogonalLoop=1;jettySize=auto;html=1;" parent="FoQC7-eRkNToFo1l5HI7-122" source="FoQC7-eRkNToFo1l5HI7-132" edge="1">
          <mxGeometry relative="1" as="geometry">
            <mxPoint x="304.4499999999998" y="160" as="targetPoint" />
          </mxGeometry>
        </mxCell>
        <mxCell id="FoQC7-eRkNToFo1l5HI7-128" value="" style="edgeStyle=orthogonalEdgeStyle;rounded=0;orthogonalLoop=1;jettySize=auto;html=1;" parent="FoQC7-eRkNToFo1l5HI7-122" source="FoQC7-eRkNToFo1l5HI7-132" target="FoQC7-eRkNToFo1l5HI7-136" edge="1">
          <mxGeometry relative="1" as="geometry">
            <Array as="points">
              <mxPoint x="130" y="230" />
            </Array>
          </mxGeometry>
        </mxCell>
        <mxCell id="FoQC7-eRkNToFo1l5HI7-129" value="" style="edgeStyle=orthogonalEdgeStyle;rounded=0;orthogonalLoop=1;jettySize=auto;html=1;" parent="FoQC7-eRkNToFo1l5HI7-122" source="FoQC7-eRkNToFo1l5HI7-132" target="FoQC7-eRkNToFo1l5HI7-137" edge="1">
          <mxGeometry relative="1" as="geometry" />
        </mxCell>
        <mxCell id="FoQC7-eRkNToFo1l5HI7-130" value="" style="edgeStyle=orthogonalEdgeStyle;rounded=0;orthogonalLoop=1;jettySize=auto;html=1;" parent="FoQC7-eRkNToFo1l5HI7-122" source="FoQC7-eRkNToFo1l5HI7-132" target="FoQC7-eRkNToFo1l5HI7-138" edge="1">
          <mxGeometry relative="1" as="geometry" />
        </mxCell>
        <mxCell id="FoQC7-eRkNToFo1l5HI7-131" value="" style="edgeStyle=orthogonalEdgeStyle;rounded=0;orthogonalLoop=1;jettySize=auto;html=1;" parent="FoQC7-eRkNToFo1l5HI7-122" source="FoQC7-eRkNToFo1l5HI7-132" target="FoQC7-eRkNToFo1l5HI7-139" edge="1">
          <mxGeometry relative="1" as="geometry" />
        </mxCell>
        <mxCell id="FoQC7-eRkNToFo1l5HI7-132" value="&lt;span style=&quot;font-size: 22px;&quot;&gt;&lt;b&gt;timeslots&lt;/b&gt;&lt;/span&gt;&lt;div&gt;&lt;span style=&quot;font-size: 22px;&quot;&gt;&lt;b&gt;(بازه زمانی)&lt;/b&gt;&lt;/span&gt;&lt;/div&gt;" style="whiteSpace=wrap;html=1;align=center;" parent="FoQC7-eRkNToFo1l5HI7-122" vertex="1">
          <mxGeometry x="154.72999999999982" y="195" width="240" height="70" as="geometry" />
        </mxCell>
        <mxCell id="FoQC7-eRkNToFo1l5HI7-133" value="id" style="ellipse;whiteSpace=wrap;html=1;" parent="FoQC7-eRkNToFo1l5HI7-122" vertex="1">
          <mxGeometry x="94.72999999999982" y="55" width="80" height="80" as="geometry" />
        </mxCell>
        <mxCell id="FoQC7-eRkNToFo1l5HI7-134" value="day" style="ellipse;whiteSpace=wrap;html=1;" parent="FoQC7-eRkNToFo1l5HI7-122" vertex="1">
          <mxGeometry x="194.72999999999982" y="45" width="80" height="80" as="geometry" />
        </mxCell>
        <mxCell id="FoQC7-eRkNToFo1l5HI7-135" value="capacity" style="ellipse;whiteSpace=wrap;html=1;" parent="FoQC7-eRkNToFo1l5HI7-122" vertex="1">
          <mxGeometry x="294.7299999999998" y="45" width="80" height="80" as="geometry" />
        </mxCell>
        <mxCell id="FoQC7-eRkNToFo1l5HI7-136" value="end_time" style="ellipse;whiteSpace=wrap;html=1;" parent="FoQC7-eRkNToFo1l5HI7-122" vertex="1">
          <mxGeometry x="74.72999999999982" y="300" width="80" height="80" as="geometry" />
        </mxCell>
        <mxCell id="FoQC7-eRkNToFo1l5HI7-137" value="created_at" style="ellipse;whiteSpace=wrap;html=1;" parent="FoQC7-eRkNToFo1l5HI7-122" vertex="1">
          <mxGeometry x="214.72999999999982" y="350" width="80" height="80" as="geometry" />
        </mxCell>
        <mxCell id="FoQC7-eRkNToFo1l5HI7-138" value="updated_at" style="ellipse;whiteSpace=wrap;html=1;" parent="FoQC7-eRkNToFo1l5HI7-122" vertex="1">
          <mxGeometry x="314.7299999999998" y="335" width="80" height="80" as="geometry" />
        </mxCell>
        <mxCell id="FoQC7-eRkNToFo1l5HI7-139" value="start_time" style="ellipse;whiteSpace=wrap;html=1;" parent="FoQC7-eRkNToFo1l5HI7-122" vertex="1">
          <mxGeometry x="28.999999999999815" y="190" width="80" height="80" as="geometry" />
        </mxCell>
        <mxCell id="FoQC7-eRkNToFo1l5HI7-140" value="1" style="edgeStyle=orthogonalEdgeStyle;rounded=0;orthogonalLoop=1;jettySize=auto;html=1;shape=link;" parent="1" source="FoQC7-eRkNToFo1l5HI7-141" target="FoQC7-eRkNToFo1l5HI7-74" edge="1">
          <mxGeometry x="-0.8872" y="10" relative="1" as="geometry">
            <Array as="points">
              <mxPoint x="12125" y="700" />
              <mxPoint x="12125" y="700" />
            </Array>
            <mxPoint as="offset" />
          </mxGeometry>
        </mxCell>
        <mxCell id="FoQC7-eRkNToFo1l5HI7-141" value="is&lt;div&gt;(بودن)&lt;/div&gt;" style="rhombus;whiteSpace=wrap;html=1;" parent="1" vertex="1">
          <mxGeometry x="12085" y="600" width="80" height="80" as="geometry" />
        </mxCell>
        <mxCell id="FoQC7-eRkNToFo1l5HI7-142" value="1" style="edgeStyle=orthogonalEdgeStyle;rounded=0;orthogonalLoop=1;jettySize=auto;html=1;" parent="1" source="FoQC7-eRkNToFo1l5HI7-25" target="FoQC7-eRkNToFo1l5HI7-141" edge="1">
          <mxGeometry x="0.8824" y="10" relative="1" as="geometry">
            <Array as="points">
              <mxPoint x="11790" y="570" />
            </Array>
            <mxPoint as="offset" />
          </mxGeometry>
        </mxCell>
        <mxCell id="FoQC7-eRkNToFo1l5HI7-143" value="m" style="edgeStyle=orthogonalEdgeStyle;rounded=0;orthogonalLoop=1;jettySize=auto;html=1;shape=link;" parent="1" source="FoQC7-eRkNToFo1l5HI7-144" target="FoQC7-eRkNToFo1l5HI7-110" edge="1">
          <mxGeometry x="-0.9285" relative="1" as="geometry">
            <Array as="points">
              <mxPoint x="11990" y="1580" />
            </Array>
            <mxPoint as="offset" />
          </mxGeometry>
        </mxCell>
        <mxCell id="FoQC7-eRkNToFo1l5HI7-144" value="teachs&lt;div&gt;(درس میدهد)&lt;/div&gt;" style="rhombus;whiteSpace=wrap;html=1;" parent="1" vertex="1">
          <mxGeometry x="11940" y="1359.9995735782154" width="80" height="80" as="geometry" />
        </mxCell>
        <mxCell id="FoQC7-eRkNToFo1l5HI7-145" value="1" style="edgeStyle=orthogonalEdgeStyle;rounded=0;orthogonalLoop=1;jettySize=auto;html=1;" parent="1" source="FoQC7-eRkNToFo1l5HI7-74" target="FoQC7-eRkNToFo1l5HI7-144" edge="1">
          <mxGeometry x="0.8779" relative="1" as="geometry">
            <Array as="points">
              <mxPoint x="12130" y="1300" />
              <mxPoint x="11980" y="1300" />
            </Array>
            <mxPoint as="offset" />
          </mxGeometry>
        </mxCell>
        <mxCell id="FoQC7-eRkNToFo1l5HI7-146" value="" style="resizable=0;html=1;whiteSpace=wrap;align=right;verticalAlign=bottom;" parent="1" connectable="0" vertex="1">
          <mxGeometry x="11630.077131187536" y="1969.207486792081" as="geometry" />
        </mxCell>
        <mxCell id="FoQC7-eRkNToFo1l5HI7-147" value="" style="swimlane;startSize=0;" parent="1" vertex="1">
          <mxGeometry x="11120" y="760" width="600" height="520" as="geometry" />
        </mxCell>
        <mxCell id="FoQC7-eRkNToFo1l5HI7-148" value="" style="edgeStyle=orthogonalEdgeStyle;rounded=0;orthogonalLoop=1;jettySize=auto;html=1;" parent="FoQC7-eRkNToFo1l5HI7-147" source="FoQC7-eRkNToFo1l5HI7-159" target="FoQC7-eRkNToFo1l5HI7-161" edge="1">
          <mxGeometry relative="1" as="geometry">
            <Array as="points">
              <mxPoint x="500" y="315" />
              <mxPoint x="500" y="80" />
            </Array>
          </mxGeometry>
        </mxCell>
        <mxCell id="FoQC7-eRkNToFo1l5HI7-151" value="" style="edgeStyle=orthogonalEdgeStyle;rounded=0;orthogonalLoop=1;jettySize=auto;html=1;" parent="FoQC7-eRkNToFo1l5HI7-147" source="FoQC7-eRkNToFo1l5HI7-159" target="FoQC7-eRkNToFo1l5HI7-164" edge="1">
          <mxGeometry relative="1" as="geometry" />
        </mxCell>
        <mxCell id="FoQC7-eRkNToFo1l5HI7-152" value="" style="edgeStyle=orthogonalEdgeStyle;rounded=0;orthogonalLoop=1;jettySize=auto;html=1;" parent="FoQC7-eRkNToFo1l5HI7-147" source="FoQC7-eRkNToFo1l5HI7-159" target="FoQC7-eRkNToFo1l5HI7-167" edge="1">
          <mxGeometry relative="1" as="geometry">
            <Array as="points">
              <mxPoint x="230" y="315" />
            </Array>
          </mxGeometry>
        </mxCell>
        <mxCell id="FoQC7-eRkNToFo1l5HI7-153" value="" style="edgeStyle=orthogonalEdgeStyle;rounded=0;orthogonalLoop=1;jettySize=auto;html=1;" parent="FoQC7-eRkNToFo1l5HI7-147" source="FoQC7-eRkNToFo1l5HI7-159" target="FoQC7-eRkNToFo1l5HI7-168" edge="1">
          <mxGeometry relative="1" as="geometry">
            <Array as="points">
              <mxPoint x="500" y="315" />
              <mxPoint x="500" y="440" />
            </Array>
          </mxGeometry>
        </mxCell>
        <mxCell id="FoQC7-eRkNToFo1l5HI7-154" value="" style="edgeStyle=orthogonalEdgeStyle;rounded=0;orthogonalLoop=1;jettySize=auto;html=1;" parent="FoQC7-eRkNToFo1l5HI7-147" source="FoQC7-eRkNToFo1l5HI7-159" target="FoQC7-eRkNToFo1l5HI7-169" edge="1">
          <mxGeometry relative="1" as="geometry">
            <Array as="points">
              <mxPoint x="500" y="315" />
              <mxPoint x="500" y="440" />
            </Array>
          </mxGeometry>
        </mxCell>
        <mxCell id="FoQC7-eRkNToFo1l5HI7-155" style="edgeStyle=orthogonalEdgeStyle;rounded=0;orthogonalLoop=1;jettySize=auto;html=1;" parent="FoQC7-eRkNToFo1l5HI7-147" source="FoQC7-eRkNToFo1l5HI7-159" target="FoQC7-eRkNToFo1l5HI7-170" edge="1">
          <mxGeometry relative="1" as="geometry">
            <Array as="points">
              <mxPoint x="500" y="315" />
              <mxPoint x="500" y="60" />
            </Array>
          </mxGeometry>
        </mxCell>
        <mxCell id="FoQC7-eRkNToFo1l5HI7-156" style="edgeStyle=orthogonalEdgeStyle;rounded=0;orthogonalLoop=1;jettySize=auto;html=1;" parent="FoQC7-eRkNToFo1l5HI7-147" source="FoQC7-eRkNToFo1l5HI7-159" target="FoQC7-eRkNToFo1l5HI7-165" edge="1">
          <mxGeometry relative="1" as="geometry">
            <Array as="points">
              <mxPoint x="150" y="315" />
              <mxPoint x="150" y="360" />
            </Array>
          </mxGeometry>
        </mxCell>
        <mxCell id="FoQC7-eRkNToFo1l5HI7-157" style="edgeStyle=orthogonalEdgeStyle;rounded=0;orthogonalLoop=1;jettySize=auto;html=1;" parent="FoQC7-eRkNToFo1l5HI7-147" source="FoQC7-eRkNToFo1l5HI7-159" target="FoQC7-eRkNToFo1l5HI7-166" edge="1">
          <mxGeometry relative="1" as="geometry" />
        </mxCell>
        <mxCell id="FoQC7-eRkNToFo1l5HI7-158" style="edgeStyle=orthogonalEdgeStyle;rounded=0;orthogonalLoop=1;jettySize=auto;html=1;" parent="FoQC7-eRkNToFo1l5HI7-147" source="FoQC7-eRkNToFo1l5HI7-159" target="FoQC7-eRkNToFo1l5HI7-171" edge="1">
          <mxGeometry relative="1" as="geometry" />
        </mxCell>
        <mxCell id="FoQC7-eRkNToFo1l5HI7-159" value="&lt;span style=&quot;font-size: 22px;&quot;&gt;&lt;b&gt;enrollments&lt;/b&gt;&lt;/span&gt;&lt;div&gt;&lt;span style=&quot;font-size: 22px;&quot;&gt;&lt;b&gt;(ثبت نام کردن)&lt;/b&gt;&lt;/span&gt;&lt;/div&gt;" style="whiteSpace=wrap;html=1;align=center;" parent="FoQC7-eRkNToFo1l5HI7-147" vertex="1">
          <mxGeometry x="237.5" y="280" width="240" height="70" as="geometry" />
        </mxCell>
        <mxCell id="FoQC7-eRkNToFo1l5HI7-160" value="N" style="resizable=0;html=1;whiteSpace=wrap;align=right;verticalAlign=bottom;" parent="FoQC7-eRkNToFo1l5HI7-147" connectable="0" vertex="1">
          <mxGeometry x="570.0771311875369" y="439.207486792081" as="geometry" />
        </mxCell>
        <mxCell id="FoQC7-eRkNToFo1l5HI7-161" value="class_id" style="ellipse;whiteSpace=wrap;html=1;" parent="FoQC7-eRkNToFo1l5HI7-147" vertex="1">
          <mxGeometry x="517.5" y="10" width="80" height="80" as="geometry" />
        </mxCell>
        <mxCell id="FoQC7-eRkNToFo1l5HI7-164" value="attendance_score" style="ellipse;whiteSpace=wrap;html=1;" parent="FoQC7-eRkNToFo1l5HI7-147" vertex="1">
          <mxGeometry y="20" width="110" height="80" as="geometry" />
        </mxCell>
        <mxCell id="FoQC7-eRkNToFo1l5HI7-165" value="midterm_score" style="ellipse;whiteSpace=wrap;html=1;" parent="FoQC7-eRkNToFo1l5HI7-147" vertex="1">
          <mxGeometry x="40" y="320" width="80" height="80" as="geometry" />
        </mxCell>
        <mxCell id="FoQC7-eRkNToFo1l5HI7-166" value="final_score" style="ellipse;whiteSpace=wrap;html=1;" parent="FoQC7-eRkNToFo1l5HI7-147" vertex="1">
          <mxGeometry x="110" y="390" width="80" height="80" as="geometry" />
        </mxCell>
        <mxCell id="FoQC7-eRkNToFo1l5HI7-167" value="overall_score" style="ellipse;whiteSpace=wrap;html=1;" parent="FoQC7-eRkNToFo1l5HI7-147" vertex="1">
          <mxGeometry x="190" y="410" width="80" height="80" as="geometry" />
        </mxCell>
        <mxCell id="FoQC7-eRkNToFo1l5HI7-168" value="created_at" style="ellipse;whiteSpace=wrap;html=1;" parent="FoQC7-eRkNToFo1l5HI7-147" vertex="1">
          <mxGeometry x="517.5" y="410" width="80" height="80" as="geometry" />
        </mxCell>
        <mxCell id="FoQC7-eRkNToFo1l5HI7-169" value="updated_at" style="ellipse;whiteSpace=wrap;html=1;" parent="FoQC7-eRkNToFo1l5HI7-147" vertex="1">
          <mxGeometry x="390" y="420" width="80" height="80" as="geometry" />
        </mxCell>
        <mxCell id="FoQC7-eRkNToFo1l5HI7-170" value="id" style="shape=tapeData;whiteSpace=wrap;html=1;perimeter=ellipsePerimeter;" parent="FoQC7-eRkNToFo1l5HI7-147" vertex="1">
          <mxGeometry x="370" y="20" width="80" height="80" as="geometry" />
        </mxCell>
        <mxCell id="FoQC7-eRkNToFo1l5HI7-171" value="user_id" style="ellipse;whiteSpace=wrap;html=1;" parent="FoQC7-eRkNToFo1l5HI7-147" vertex="1">
          <mxGeometry x="517.5" y="110" width="80" height="80" as="geometry" />
        </mxCell>
        <mxCell id="FoQC7-eRkNToFo1l5HI7-172" value="n" style="edgeStyle=orthogonalEdgeStyle;rounded=0;orthogonalLoop=1;jettySize=auto;html=1;shape=link;" parent="1" source="FoQC7-eRkNToFo1l5HI7-173" target="FoQC7-eRkNToFo1l5HI7-159" edge="1">
          <mxGeometry x="-0.7962" y="10" relative="1" as="geometry">
            <mxPoint as="offset" />
          </mxGeometry>
        </mxCell>
        <mxCell id="FoQC7-eRkNToFo1l5HI7-173" value="Enroll&lt;br&gt;&lt;div&gt;(ثبت نام کردن&lt;span data-darkreader-inline-color=&quot;&quot; data-darkreader-inline-bgcolor=&quot;&quot; style=&quot;background-color: transparent; color: light-dark(rgb(0, 0, 0), rgb(255, 255, 255)); --darkreader-inline-bgcolor: transparent; --darkreader-inline-color: var(--darkreader-text-000000, #1b1b1a);&quot;&gt;)&lt;/span&gt;&lt;/div&gt;" style="rhombus;whiteSpace=wrap;html=1;" parent="1" vertex="1">
          <mxGeometry x="11440" y="619.999573578215" width="80" height="80" as="geometry" />
        </mxCell>
        <mxCell id="FoQC7-eRkNToFo1l5HI7-174" value="1" style="edgeStyle=orthogonalEdgeStyle;rounded=0;orthogonalLoop=1;jettySize=auto;html=1;shape=link;" parent="1" source="FoQC7-eRkNToFo1l5HI7-175" target="FoQC7-eRkNToFo1l5HI7-90" edge="1">
          <mxGeometry x="-0.9098" relative="1" as="geometry">
            <Array as="points">
              <mxPoint x="11390" y="2360" />
            </Array>
            <mxPoint as="offset" />
          </mxGeometry>
        </mxCell>
        <mxCell id="FoQC7-eRkNToFo1l5HI7-175" value="has&lt;div&gt;(دارد)&lt;/div&gt;" style="rhombus;whiteSpace=wrap;html=1;" parent="1" vertex="1">
          <mxGeometry x="11470" y="2310" width="80" height="80" as="geometry" />
        </mxCell>
        <mxCell id="FoQC7-eRkNToFo1l5HI7-176" value="1" style="edgeStyle=orthogonalEdgeStyle;rounded=0;orthogonalLoop=1;jettySize=auto;html=1;shape=link;" parent="1" source="FoQC7-eRkNToFo1l5HI7-110" target="FoQC7-eRkNToFo1l5HI7-175" edge="1">
          <mxGeometry x="0.9349" relative="1" as="geometry">
            <Array as="points">
              <mxPoint x="11510" y="1950" />
            </Array>
            <mxPoint as="offset" />
          </mxGeometry>
        </mxCell>
        <mxCell id="FoQC7-eRkNToFo1l5HI7-177" value="M" style="edgeStyle=orthogonalEdgeStyle;rounded=0;orthogonalLoop=1;jettySize=auto;html=1;" parent="1" source="FoQC7-eRkNToFo1l5HI7-186" target="FoQC7-eRkNToFo1l5HI7-132" edge="1">
          <mxGeometry x="-0.853" relative="1" as="geometry">
            <mxPoint as="offset" />
            <Array as="points">
              <mxPoint x="12000" y="2670" />
              <mxPoint x="11995" y="2670" />
            </Array>
          </mxGeometry>
        </mxCell>
        <mxCell id="FoQC7-eRkNToFo1l5HI7-178" value="" style="edgeStyle=orthogonalEdgeStyle;rounded=0;orthogonalLoop=1;jettySize=auto;html=1;" parent="1" source="FoQC7-eRkNToFo1l5HI7-186" target="FoQC7-eRkNToFo1l5HI7-313" edge="1">
          <mxGeometry relative="1" as="geometry" />
        </mxCell>
        <mxCell id="FoQC7-eRkNToFo1l5HI7-179" value="" style="edgeStyle=orthogonalEdgeStyle;rounded=0;orthogonalLoop=1;jettySize=auto;html=1;" parent="1" source="FoQC7-eRkNToFo1l5HI7-186" target="FoQC7-eRkNToFo1l5HI7-313" edge="1">
          <mxGeometry relative="1" as="geometry" />
        </mxCell>
        <mxCell id="FoQC7-eRkNToFo1l5HI7-180" value="" style="edgeStyle=orthogonalEdgeStyle;rounded=0;orthogonalLoop=1;jettySize=auto;html=1;" parent="1" source="FoQC7-eRkNToFo1l5HI7-186" target="FoQC7-eRkNToFo1l5HI7-314" edge="1">
          <mxGeometry relative="1" as="geometry" />
        </mxCell>
        <mxCell id="FoQC7-eRkNToFo1l5HI7-181" value="" style="edgeStyle=orthogonalEdgeStyle;rounded=0;orthogonalLoop=1;jettySize=auto;html=1;" parent="1" source="FoQC7-eRkNToFo1l5HI7-186" target="FoQC7-eRkNToFo1l5HI7-315" edge="1">
          <mxGeometry relative="1" as="geometry">
            <Array as="points">
              <mxPoint x="11920" y="2383" />
              <mxPoint x="11920" y="2499" />
            </Array>
          </mxGeometry>
        </mxCell>
        <mxCell id="FoQC7-eRkNToFo1l5HI7-182" value="" style="edgeStyle=orthogonalEdgeStyle;rounded=0;orthogonalLoop=1;jettySize=auto;html=1;" parent="1" source="FoQC7-eRkNToFo1l5HI7-186" target="FoQC7-eRkNToFo1l5HI7-316" edge="1">
          <mxGeometry relative="1" as="geometry" />
        </mxCell>
        <mxCell id="FoQC7-eRkNToFo1l5HI7-183" value="" style="edgeStyle=orthogonalEdgeStyle;rounded=0;orthogonalLoop=1;jettySize=auto;html=1;" parent="1" source="FoQC7-eRkNToFo1l5HI7-186" target="FoQC7-eRkNToFo1l5HI7-316" edge="1">
          <mxGeometry relative="1" as="geometry" />
        </mxCell>
        <mxCell id="FoQC7-eRkNToFo1l5HI7-184" value="" style="edgeStyle=orthogonalEdgeStyle;rounded=0;orthogonalLoop=1;jettySize=auto;html=1;" parent="1" source="FoQC7-eRkNToFo1l5HI7-186" target="FoQC7-eRkNToFo1l5HI7-316" edge="1">
          <mxGeometry relative="1" as="geometry" />
        </mxCell>
        <mxCell id="FoQC7-eRkNToFo1l5HI7-185" value="" style="edgeStyle=orthogonalEdgeStyle;rounded=0;orthogonalLoop=1;jettySize=auto;html=1;" parent="1" source="FoQC7-eRkNToFo1l5HI7-186" target="FoQC7-eRkNToFo1l5HI7-317" edge="1">
          <mxGeometry relative="1" as="geometry" />
        </mxCell>
        <mxCell id="FoQC7-eRkNToFo1l5HI7-186" value="&lt;span data-darkreader-inline-bgcolor=&quot;&quot; data-darkreader-inline-color=&quot;&quot; style=&quot;color: rgb(0, 0, 0); font-family: Helvetica; font-size: 12px; font-style: normal; font-variant-ligatures: normal; font-variant-caps: normal; font-weight: 400; letter-spacing: normal; orphans: 2; text-align: center; text-indent: 0px; text-transform: none; widows: 2; word-spacing: 0px; -webkit-text-stroke-width: 0px; white-space: normal; background-color: rgb(236, 236, 236); text-decoration-thickness: initial; text-decoration-style: initial; text-decoration-color: initial; float: none; display: inline !important; --darkreader-inline-color: var(--darkreader-text-000000, #1b1b1a); --darkreader-inline-bgcolor: var(--darkreader-background-ececec, #e4d9c5);&quot;&gt;Scheduled&lt;/span&gt;&lt;div&gt;&lt;span data-darkreader-inline-bgcolor=&quot;&quot; data-darkreader-inline-color=&quot;&quot; style=&quot;color: rgb(0, 0, 0); font-family: Helvetica; font-size: 12px; font-style: normal; font-variant-ligatures: normal; font-variant-caps: normal; font-weight: 400; letter-spacing: normal; orphans: 2; text-align: center; text-indent: 0px; text-transform: none; widows: 2; word-spacing: 0px; -webkit-text-stroke-width: 0px; white-space: normal; background-color: rgb(236, 236, 236); text-decoration-thickness: initial; text-decoration-style: initial; text-decoration-color: initial; float: none; display: inline !important; --darkreader-inline-color: var(--darkreader-text-000000, #1b1b1a); --darkreader-inline-bgcolor: var(--darkreader-background-ececec, #e4d9c5);&quot;&gt;(زمانبندی میشود)&lt;/span&gt;&lt;/div&gt;" style="rhombus;whiteSpace=wrap;html=1;" parent="1" vertex="1">
          <mxGeometry x="11950" y="2330" width="100" height="105" as="geometry" />
        </mxCell>
        <mxCell id="FoQC7-eRkNToFo1l5HI7-187" value="N" style="edgeStyle=orthogonalEdgeStyle;rounded=0;orthogonalLoop=1;jettySize=auto;html=1;shape=link;" parent="1" source="FoQC7-eRkNToFo1l5HI7-110" target="FoQC7-eRkNToFo1l5HI7-186" edge="1">
          <mxGeometry x="0.9226" relative="1" as="geometry">
            <Array as="points">
              <mxPoint x="12030" y="2310" />
              <mxPoint x="12000" y="2310" />
            </Array>
            <mxPoint as="offset" />
          </mxGeometry>
        </mxCell>
        <mxCell id="FoQC7-eRkNToFo1l5HI7-188" value="1" style="edgeStyle=orthogonalEdgeStyle;rounded=0;orthogonalLoop=1;jettySize=auto;html=1;" parent="1" source="FoQC7-eRkNToFo1l5HI7-189" target="FoQC7-eRkNToFo1l5HI7-110" edge="1">
          <mxGeometry x="-0.8937" relative="1" as="geometry">
            <Array as="points">
              <mxPoint x="11960" y="1710" />
            </Array>
            <mxPoint as="offset" />
          </mxGeometry>
        </mxCell>
        <mxCell id="FoQC7-eRkNToFo1l5HI7-189" value="belong_to&lt;div&gt;(تعلق دارد به)&lt;/div&gt;" style="rhombus;whiteSpace=wrap;html=1;" parent="1" vertex="1">
          <mxGeometry x="11760" y="1340" width="80" height="80" as="geometry" />
        </mxCell>
        <mxCell id="FoQC7-eRkNToFo1l5HI7-190" value="" style="swimlane;startSize=0;" parent="1" vertex="1">
          <mxGeometry x="9980" y="770" width="410" height="461" as="geometry" />
        </mxCell>
        <mxCell id="FoQC7-eRkNToFo1l5HI7-191" value="" style="edgeStyle=orthogonalEdgeStyle;rounded=0;orthogonalLoop=1;jettySize=auto;html=1;" parent="FoQC7-eRkNToFo1l5HI7-190" source="FoQC7-eRkNToFo1l5HI7-198" target="FoQC7-eRkNToFo1l5HI7-199" edge="1">
          <mxGeometry relative="1" as="geometry" />
        </mxCell>
        <mxCell id="FoQC7-eRkNToFo1l5HI7-192" value="" style="edgeStyle=orthogonalEdgeStyle;rounded=0;orthogonalLoop=1;jettySize=auto;html=1;" parent="FoQC7-eRkNToFo1l5HI7-190" source="FoQC7-eRkNToFo1l5HI7-198" target="FoQC7-eRkNToFo1l5HI7-200" edge="1">
          <mxGeometry relative="1" as="geometry" />
        </mxCell>
        <mxCell id="FoQC7-eRkNToFo1l5HI7-193" value="" style="edgeStyle=orthogonalEdgeStyle;rounded=0;orthogonalLoop=1;jettySize=auto;html=1;" parent="FoQC7-eRkNToFo1l5HI7-190" source="FoQC7-eRkNToFo1l5HI7-198" target="FoQC7-eRkNToFo1l5HI7-201" edge="1">
          <mxGeometry relative="1" as="geometry" />
        </mxCell>
        <mxCell id="FoQC7-eRkNToFo1l5HI7-194" value="" style="edgeStyle=orthogonalEdgeStyle;rounded=0;orthogonalLoop=1;jettySize=auto;html=1;" parent="FoQC7-eRkNToFo1l5HI7-190" source="FoQC7-eRkNToFo1l5HI7-198" target="FoQC7-eRkNToFo1l5HI7-202" edge="1">
          <mxGeometry relative="1" as="geometry" />
        </mxCell>
        <mxCell id="FoQC7-eRkNToFo1l5HI7-195" value="" style="edgeStyle=orthogonalEdgeStyle;rounded=0;orthogonalLoop=1;jettySize=auto;html=1;" parent="FoQC7-eRkNToFo1l5HI7-190" source="FoQC7-eRkNToFo1l5HI7-198" target="FoQC7-eRkNToFo1l5HI7-203" edge="1">
          <mxGeometry relative="1" as="geometry" />
        </mxCell>
        <mxCell id="FoQC7-eRkNToFo1l5HI7-196" value="" style="edgeStyle=orthogonalEdgeStyle;rounded=0;orthogonalLoop=1;jettySize=auto;html=1;" parent="FoQC7-eRkNToFo1l5HI7-190" source="FoQC7-eRkNToFo1l5HI7-198" target="FoQC7-eRkNToFo1l5HI7-204" edge="1">
          <mxGeometry relative="1" as="geometry" />
        </mxCell>
        <mxCell id="FoQC7-eRkNToFo1l5HI7-197" value="" style="edgeStyle=orthogonalEdgeStyle;rounded=0;orthogonalLoop=1;jettySize=auto;html=1;" parent="FoQC7-eRkNToFo1l5HI7-190" source="FoQC7-eRkNToFo1l5HI7-198" target="FoQC7-eRkNToFo1l5HI7-205" edge="1">
          <mxGeometry relative="1" as="geometry" />
        </mxCell>
        <mxCell id="FoQC7-eRkNToFo1l5HI7-198" value="&lt;span style=&quot;font-size: 22px;&quot;&gt;&lt;b&gt;sessions&lt;/b&gt;&lt;/span&gt;&lt;div&gt;&lt;span style=&quot;font-size: 22px;&quot;&gt;&lt;b&gt;(جلسه)&lt;/b&gt;&lt;/span&gt;&lt;/div&gt;" style="whiteSpace=wrap;html=1;align=center;" parent="FoQC7-eRkNToFo1l5HI7-190" vertex="1">
          <mxGeometry x="120" y="207.5" width="240" height="70" as="geometry" />
        </mxCell>
        <mxCell id="FoQC7-eRkNToFo1l5HI7-199" value="id" style="ellipse;whiteSpace=wrap;html=1;" parent="FoQC7-eRkNToFo1l5HI7-190" vertex="1">
          <mxGeometry x="10" y="151" width="80" height="80" as="geometry" />
        </mxCell>
        <mxCell id="FoQC7-eRkNToFo1l5HI7-200" value="class_id" style="ellipse;whiteSpace=wrap;html=1;" parent="FoQC7-eRkNToFo1l5HI7-190" vertex="1">
          <mxGeometry x="40" y="31" width="80" height="80" as="geometry" />
        </mxCell>
        <mxCell id="FoQC7-eRkNToFo1l5HI7-201" value="description" style="ellipse;whiteSpace=wrap;html=1;" parent="FoQC7-eRkNToFo1l5HI7-190" vertex="1">
          <mxGeometry x="31" y="321" width="80" height="80" as="geometry" />
        </mxCell>
        <mxCell id="FoQC7-eRkNToFo1l5HI7-384" value="" style="edgeStyle=orthogonalEdgeStyle;rounded=0;orthogonalLoop=1;jettySize=auto;html=1;" parent="FoQC7-eRkNToFo1l5HI7-190" source="FoQC7-eRkNToFo1l5HI7-202" target="FoQC7-eRkNToFo1l5HI7-201" edge="1">
          <mxGeometry relative="1" as="geometry" />
        </mxCell>
        <mxCell id="FoQC7-eRkNToFo1l5HI7-202" value="date_held" style="ellipse;whiteSpace=wrap;html=1;" parent="FoQC7-eRkNToFo1l5HI7-190" vertex="1">
          <mxGeometry x="111" y="357.5" width="80" height="80" as="geometry" />
        </mxCell>
        <mxCell id="FoQC7-eRkNToFo1l5HI7-203" value="canceled" style="ellipse;whiteSpace=wrap;html=1;" parent="FoQC7-eRkNToFo1l5HI7-190" vertex="1">
          <mxGeometry x="130" y="31" width="80" height="80" as="geometry" />
        </mxCell>
        <mxCell id="FoQC7-eRkNToFo1l5HI7-204" value="created_at" style="ellipse;whiteSpace=wrap;html=1;" parent="FoQC7-eRkNToFo1l5HI7-190" vertex="1">
          <mxGeometry x="300" y="61" width="80" height="80" as="geometry" />
        </mxCell>
        <mxCell id="FoQC7-eRkNToFo1l5HI7-205" value="updated_at" style="ellipse;whiteSpace=wrap;html=1;" parent="FoQC7-eRkNToFo1l5HI7-190" vertex="1">
          <mxGeometry x="275" y="330" width="80" height="80" as="geometry" />
        </mxCell>
        <mxCell id="FoQC7-eRkNToFo1l5HI7-206" value="m" style="edgeStyle=orthogonalEdgeStyle;rounded=0;orthogonalLoop=1;jettySize=auto;html=1;exitX=0.5;exitY=1;exitDx=0;exitDy=0;shape=link;" parent="1" source="FoQC7-eRkNToFo1l5HI7-273" target="FoQC7-eRkNToFo1l5HI7-198" edge="1">
          <mxGeometry x="-0.9096" y="5" relative="1" as="geometry">
            <mxPoint as="offset" />
          </mxGeometry>
        </mxCell>
        <mxCell id="FoQC7-eRkNToFo1l5HI7-207" value="N" style="edgeStyle=orthogonalEdgeStyle;rounded=0;orthogonalLoop=1;jettySize=auto;html=1;shape=link;" parent="1" source="FoQC7-eRkNToFo1l5HI7-159" target="FoQC7-eRkNToFo1l5HI7-189" edge="1">
          <mxGeometry x="0.9394" relative="1" as="geometry">
            <Array as="points">
              <mxPoint x="11470" y="1380" />
            </Array>
            <mxPoint as="offset" />
          </mxGeometry>
        </mxCell>
        <mxCell id="FoQC7-eRkNToFo1l5HI7-208" value="1" style="edgeStyle=orthogonalEdgeStyle;rounded=0;orthogonalLoop=1;jettySize=auto;html=1;" parent="1" source="FoQC7-eRkNToFo1l5HI7-209" target="FoQC7-eRkNToFo1l5HI7-110" edge="1">
          <mxGeometry x="-0.884" y="1" relative="1" as="geometry">
            <Array as="points">
              <mxPoint x="11340" y="1950" />
            </Array>
            <mxPoint as="offset" />
          </mxGeometry>
        </mxCell>
        <mxCell id="FoQC7-eRkNToFo1l5HI7-209" value="has&lt;div&gt;(دارد)&lt;/div&gt;" style="rhombus;whiteSpace=wrap;html=1;" parent="1" vertex="1">
          <mxGeometry x="11300" y="1460" width="80" height="80" as="geometry" />
        </mxCell>
        <mxCell id="FoQC7-eRkNToFo1l5HI7-210" value="m" style="edgeStyle=orthogonalEdgeStyle;rounded=0;orthogonalLoop=1;jettySize=auto;html=1;shape=link;" parent="1" source="FoQC7-eRkNToFo1l5HI7-198" target="FoQC7-eRkNToFo1l5HI7-209" edge="1">
          <mxGeometry x="0.9597" y="2" relative="1" as="geometry">
            <Array as="points">
              <mxPoint x="10210" y="1320" />
              <mxPoint x="11020" y="1320" />
              <mxPoint x="11020" y="1490" />
            </Array>
            <mxPoint as="offset" />
          </mxGeometry>
        </mxCell>
        <mxCell id="FoQC7-eRkNToFo1l5HI7-211" value="" style="swimlane;startSize=0;" parent="1" vertex="1">
          <mxGeometry x="12200" y="2550" width="550" height="390" as="geometry" />
        </mxCell>
        <mxCell id="FoQC7-eRkNToFo1l5HI7-212" value="" style="edgeStyle=orthogonalEdgeStyle;rounded=0;orthogonalLoop=1;jettySize=auto;html=1;" parent="FoQC7-eRkNToFo1l5HI7-211" source="FoQC7-eRkNToFo1l5HI7-218" target="FoQC7-eRkNToFo1l5HI7-219" edge="1">
          <mxGeometry relative="1" as="geometry" />
        </mxCell>
        <mxCell id="FoQC7-eRkNToFo1l5HI7-213" value="" style="edgeStyle=orthogonalEdgeStyle;rounded=0;orthogonalLoop=1;jettySize=auto;html=1;" parent="FoQC7-eRkNToFo1l5HI7-211" source="FoQC7-eRkNToFo1l5HI7-218" target="FoQC7-eRkNToFo1l5HI7-219" edge="1">
          <mxGeometry relative="1" as="geometry" />
        </mxCell>
        <mxCell id="FoQC7-eRkNToFo1l5HI7-214" value="" style="edgeStyle=orthogonalEdgeStyle;rounded=0;orthogonalLoop=1;jettySize=auto;html=1;" parent="FoQC7-eRkNToFo1l5HI7-211" source="FoQC7-eRkNToFo1l5HI7-218" target="FoQC7-eRkNToFo1l5HI7-220" edge="1">
          <mxGeometry relative="1" as="geometry" />
        </mxCell>
        <mxCell id="FoQC7-eRkNToFo1l5HI7-215" value="" style="edgeStyle=orthogonalEdgeStyle;rounded=0;orthogonalLoop=1;jettySize=auto;html=1;" parent="FoQC7-eRkNToFo1l5HI7-211" source="FoQC7-eRkNToFo1l5HI7-218" target="FoQC7-eRkNToFo1l5HI7-221" edge="1">
          <mxGeometry relative="1" as="geometry" />
        </mxCell>
        <mxCell id="FoQC7-eRkNToFo1l5HI7-216" value="" style="edgeStyle=orthogonalEdgeStyle;rounded=0;orthogonalLoop=1;jettySize=auto;html=1;" parent="FoQC7-eRkNToFo1l5HI7-211" source="FoQC7-eRkNToFo1l5HI7-218" target="FoQC7-eRkNToFo1l5HI7-222" edge="1">
          <mxGeometry relative="1" as="geometry">
            <Array as="points">
              <mxPoint x="275" y="70" />
            </Array>
          </mxGeometry>
        </mxCell>
        <mxCell id="FoQC7-eRkNToFo1l5HI7-217" value="" style="edgeStyle=orthogonalEdgeStyle;rounded=0;orthogonalLoop=1;jettySize=auto;html=1;" parent="FoQC7-eRkNToFo1l5HI7-211" source="FoQC7-eRkNToFo1l5HI7-218" target="FoQC7-eRkNToFo1l5HI7-223" edge="1">
          <mxGeometry relative="1" as="geometry" />
        </mxCell>
        <mxCell id="FoQC7-eRkNToFo1l5HI7-218" value="&lt;span style=&quot;font-size: 24px;&quot;&gt;class_announcement&lt;/span&gt;&lt;div&gt;&lt;span style=&quot;font-size: 24px;&quot;&gt;(اعلانات کلاس)&lt;/span&gt;&lt;/div&gt;" style="rounded=0;whiteSpace=wrap;html=1;" parent="FoQC7-eRkNToFo1l5HI7-211" vertex="1">
          <mxGeometry x="100" y="125" width="280" height="90" as="geometry" />
        </mxCell>
        <mxCell id="FoQC7-eRkNToFo1l5HI7-219" value="id" style="ellipse;whiteSpace=wrap;html=1;rounded=0;" parent="FoQC7-eRkNToFo1l5HI7-211" vertex="1">
          <mxGeometry x="440" y="100" width="80" height="80" as="geometry" />
        </mxCell>
        <mxCell id="FoQC7-eRkNToFo1l5HI7-220" value="class_id" style="ellipse;whiteSpace=wrap;html=1;rounded=0;" parent="FoQC7-eRkNToFo1l5HI7-211" vertex="1">
          <mxGeometry x="440" y="205" width="80" height="80" as="geometry" />
        </mxCell>
        <mxCell id="FoQC7-eRkNToFo1l5HI7-221" value="content" style="ellipse;whiteSpace=wrap;html=1;rounded=0;" parent="FoQC7-eRkNToFo1l5HI7-211" vertex="1">
          <mxGeometry x="330" y="245" width="80" height="80" as="geometry" />
        </mxCell>
        <mxCell id="FoQC7-eRkNToFo1l5HI7-222" value="created_at" style="ellipse;whiteSpace=wrap;html=1;rounded=0;" parent="FoQC7-eRkNToFo1l5HI7-211" vertex="1">
          <mxGeometry x="370" y="20" width="80" height="80" as="geometry" />
        </mxCell>
        <mxCell id="FoQC7-eRkNToFo1l5HI7-223" value="updated_id" style="ellipse;whiteSpace=wrap;html=1;rounded=0;" parent="FoQC7-eRkNToFo1l5HI7-211" vertex="1">
          <mxGeometry x="150" y="245" width="80" height="80" as="geometry" />
        </mxCell>
        <mxCell id="FoQC7-eRkNToFo1l5HI7-224" value="N" style="edgeStyle=orthogonalEdgeStyle;rounded=0;orthogonalLoop=1;jettySize=auto;html=1;shape=link;" parent="1" source="FoQC7-eRkNToFo1l5HI7-225" target="FoQC7-eRkNToFo1l5HI7-218" edge="1">
          <mxGeometry x="-0.931" relative="1" as="geometry">
            <mxPoint as="offset" />
          </mxGeometry>
        </mxCell>
        <mxCell id="FoQC7-eRkNToFo1l5HI7-225" value="has&lt;div&gt;(دارد)&lt;/div&gt;" style="rhombus;whiteSpace=wrap;html=1;" parent="1" vertex="1">
          <mxGeometry x="12320" y="2420" width="80" height="80" as="geometry" />
        </mxCell>
        <mxCell id="FoQC7-eRkNToFo1l5HI7-226" value="1" style="edgeStyle=orthogonalEdgeStyle;rounded=0;orthogonalLoop=1;jettySize=auto;html=1;" parent="1" source="FoQC7-eRkNToFo1l5HI7-110" target="FoQC7-eRkNToFo1l5HI7-225" edge="1">
          <mxGeometry x="0.7647" relative="1" as="geometry">
            <Array as="points">
              <mxPoint x="12030" y="2320" />
              <mxPoint x="12360" y="2320" />
            </Array>
            <mxPoint as="offset" />
          </mxGeometry>
        </mxCell>
        <mxCell id="FoQC7-eRkNToFo1l5HI7-227" value="" style="swimlane;startSize=0;" parent="1" vertex="1">
          <mxGeometry x="10710" y="-120" width="450" height="365" as="geometry" />
        </mxCell>
        <mxCell id="FoQC7-eRkNToFo1l5HI7-228" value="" style="edgeStyle=orthogonalEdgeStyle;rounded=0;orthogonalLoop=1;jettySize=auto;html=1;" parent="FoQC7-eRkNToFo1l5HI7-227" source="FoQC7-eRkNToFo1l5HI7-234" target="FoQC7-eRkNToFo1l5HI7-235" edge="1">
          <mxGeometry relative="1" as="geometry">
            <Array as="points">
              <mxPoint x="170" y="130" />
            </Array>
          </mxGeometry>
        </mxCell>
        <mxCell id="FoQC7-eRkNToFo1l5HI7-229" value="" style="edgeStyle=orthogonalEdgeStyle;rounded=0;orthogonalLoop=1;jettySize=auto;html=1;" parent="FoQC7-eRkNToFo1l5HI7-227" source="FoQC7-eRkNToFo1l5HI7-234" target="FoQC7-eRkNToFo1l5HI7-236" edge="1">
          <mxGeometry relative="1" as="geometry" />
        </mxCell>
        <mxCell id="FoQC7-eRkNToFo1l5HI7-230" value="" style="edgeStyle=orthogonalEdgeStyle;rounded=0;orthogonalLoop=1;jettySize=auto;html=1;" parent="FoQC7-eRkNToFo1l5HI7-227" source="FoQC7-eRkNToFo1l5HI7-234" target="FoQC7-eRkNToFo1l5HI7-237" edge="1">
          <mxGeometry relative="1" as="geometry">
            <Array as="points">
              <mxPoint x="290" y="50" />
              <mxPoint x="290" y="50" />
            </Array>
          </mxGeometry>
        </mxCell>
        <mxCell id="FoQC7-eRkNToFo1l5HI7-231" value="" style="edgeStyle=orthogonalEdgeStyle;rounded=0;orthogonalLoop=1;jettySize=auto;html=1;" parent="FoQC7-eRkNToFo1l5HI7-227" source="FoQC7-eRkNToFo1l5HI7-234" target="FoQC7-eRkNToFo1l5HI7-238" edge="1">
          <mxGeometry relative="1" as="geometry">
            <Array as="points" />
          </mxGeometry>
        </mxCell>
        <mxCell id="FoQC7-eRkNToFo1l5HI7-232" value="" style="edgeStyle=orthogonalEdgeStyle;rounded=0;orthogonalLoop=1;jettySize=auto;html=1;" parent="FoQC7-eRkNToFo1l5HI7-227" source="FoQC7-eRkNToFo1l5HI7-234" target="FoQC7-eRkNToFo1l5HI7-239" edge="1">
          <mxGeometry relative="1" as="geometry">
            <Array as="points">
              <mxPoint x="170" y="230" />
            </Array>
          </mxGeometry>
        </mxCell>
        <mxCell id="FoQC7-eRkNToFo1l5HI7-233" value="" style="edgeStyle=orthogonalEdgeStyle;rounded=0;orthogonalLoop=1;jettySize=auto;html=1;" parent="FoQC7-eRkNToFo1l5HI7-227" source="FoQC7-eRkNToFo1l5HI7-234" target="FoQC7-eRkNToFo1l5HI7-240" edge="1">
          <mxGeometry relative="1" as="geometry" />
        </mxCell>
        <mxCell id="FoQC7-eRkNToFo1l5HI7-234" value="&lt;span style=&quot;font-size: 22px;&quot;&gt;&lt;b&gt;articles&lt;/b&gt;&lt;/span&gt;&lt;div&gt;&lt;span style=&quot;font-size: 22px;&quot;&gt;&lt;b&gt;(مقاله)&lt;/b&gt;&lt;/span&gt;&lt;/div&gt;" style="whiteSpace=wrap;html=1;align=center;" parent="FoQC7-eRkNToFo1l5HI7-227" vertex="1">
          <mxGeometry x="50" y="29.69" width="240" height="70" as="geometry" />
        </mxCell>
        <mxCell id="FoQC7-eRkNToFo1l5HI7-235" value="id" style="ellipse;whiteSpace=wrap;html=1;" parent="FoQC7-eRkNToFo1l5HI7-227" vertex="1">
          <mxGeometry x="10" y="110" width="80" height="80" as="geometry" />
        </mxCell>
        <mxCell id="FoQC7-eRkNToFo1l5HI7-236" value="user_id" style="ellipse;whiteSpace=wrap;html=1;" parent="FoQC7-eRkNToFo1l5HI7-227" vertex="1">
          <mxGeometry x="40" y="225" width="80" height="80" as="geometry" />
        </mxCell>
        <mxCell id="FoQC7-eRkNToFo1l5HI7-237" value="title" style="ellipse;whiteSpace=wrap;html=1;" parent="FoQC7-eRkNToFo1l5HI7-227" vertex="1">
          <mxGeometry x="340" y="10" width="80" height="80" as="geometry" />
        </mxCell>
        <mxCell id="FoQC7-eRkNToFo1l5HI7-238" value="content" style="ellipse;whiteSpace=wrap;html=1;" parent="FoQC7-eRkNToFo1l5HI7-227" vertex="1">
          <mxGeometry x="350" y="90" width="80" height="80" as="geometry" />
        </mxCell>
        <mxCell id="FoQC7-eRkNToFo1l5HI7-239" value="created_at" style="ellipse;whiteSpace=wrap;html=1;" parent="FoQC7-eRkNToFo1l5HI7-227" vertex="1">
          <mxGeometry x="240" y="220" width="80" height="80" as="geometry" />
        </mxCell>
        <mxCell id="FoQC7-eRkNToFo1l5HI7-240" value="updated_at" style="ellipse;whiteSpace=wrap;html=1;" parent="FoQC7-eRkNToFo1l5HI7-227" vertex="1">
          <mxGeometry x="110" y="275" width="80" height="80" as="geometry" />
        </mxCell>
        <mxCell id="FoQC7-eRkNToFo1l5HI7-241" value="cover_picture" style="ellipse;whiteSpace=wrap;html=1;" parent="FoQC7-eRkNToFo1l5HI7-227" vertex="1">
          <mxGeometry x="340" y="205" width="80" height="80" as="geometry" />
        </mxCell>
        <mxCell id="FoQC7-eRkNToFo1l5HI7-242" value="" style="edgeStyle=orthogonalEdgeStyle;rounded=0;orthogonalLoop=1;jettySize=auto;html=1;" parent="FoQC7-eRkNToFo1l5HI7-227" source="FoQC7-eRkNToFo1l5HI7-234" target="FoQC7-eRkNToFo1l5HI7-241" edge="1">
          <mxGeometry relative="1" as="geometry">
            <Array as="points">
              <mxPoint x="170" y="210" />
            </Array>
          </mxGeometry>
        </mxCell>
        <mxCell id="FoQC7-eRkNToFo1l5HI7-243" value="m" style="edgeStyle=orthogonalEdgeStyle;rounded=0;orthogonalLoop=1;jettySize=auto;html=1;shape=link;" parent="1" source="FoQC7-eRkNToFo1l5HI7-249" target="FoQC7-eRkNToFo1l5HI7-234" edge="1">
          <mxGeometry x="-0.814" y="-10" relative="1" as="geometry">
            <Array as="points">
              <mxPoint x="11200" y="100" />
              <mxPoint x="11200" y="70" />
              <mxPoint x="10990" y="70" />
            </Array>
            <mxPoint as="offset" />
          </mxGeometry>
        </mxCell>
        <mxCell id="FoQC7-eRkNToFo1l5HI7-244" style="edgeStyle=orthogonalEdgeStyle;rounded=0;orthogonalLoop=1;jettySize=auto;html=1;" parent="1" source="FoQC7-eRkNToFo1l5HI7-249" target="FoQC7-eRkNToFo1l5HI7-280" edge="1">
          <mxGeometry relative="1" as="geometry" />
        </mxCell>
        <mxCell id="FoQC7-eRkNToFo1l5HI7-245" style="edgeStyle=orthogonalEdgeStyle;rounded=0;orthogonalLoop=1;jettySize=auto;html=1;" parent="1" target="FoQC7-eRkNToFo1l5HI7-282" edge="1">
          <mxGeometry relative="1" as="geometry">
            <mxPoint x="11320" y="60" as="sourcePoint" />
          </mxGeometry>
        </mxCell>
        <mxCell id="FoQC7-eRkNToFo1l5HI7-246" style="edgeStyle=orthogonalEdgeStyle;rounded=0;orthogonalLoop=1;jettySize=auto;html=1;" parent="1" source="FoQC7-eRkNToFo1l5HI7-249" target="FoQC7-eRkNToFo1l5HI7-281" edge="1">
          <mxGeometry relative="1" as="geometry" />
        </mxCell>
        <mxCell id="FoQC7-eRkNToFo1l5HI7-247" style="edgeStyle=orthogonalEdgeStyle;rounded=0;orthogonalLoop=1;jettySize=auto;html=1;" parent="1" source="FoQC7-eRkNToFo1l5HI7-249" target="FoQC7-eRkNToFo1l5HI7-283" edge="1">
          <mxGeometry relative="1" as="geometry" />
        </mxCell>
        <mxCell id="FoQC7-eRkNToFo1l5HI7-248" style="edgeStyle=orthogonalEdgeStyle;rounded=0;orthogonalLoop=1;jettySize=auto;html=1;" parent="1" source="FoQC7-eRkNToFo1l5HI7-249" target="FoQC7-eRkNToFo1l5HI7-284" edge="1">
          <mxGeometry relative="1" as="geometry" />
        </mxCell>
        <mxCell id="FoQC7-eRkNToFo1l5HI7-249" value="write&lt;div&gt;(نوشتن)&lt;/div&gt;" style="rhombus;whiteSpace=wrap;html=1;" parent="1" vertex="1">
          <mxGeometry x="11280" y="60" width="80" height="80" as="geometry" />
        </mxCell>
        <mxCell id="FoQC7-eRkNToFo1l5HI7-250" value="n" style="edgeStyle=orthogonalEdgeStyle;rounded=0;orthogonalLoop=1;jettySize=auto;html=1;" parent="1" source="FoQC7-eRkNToFo1l5HI7-25" target="FoQC7-eRkNToFo1l5HI7-249" edge="1">
          <mxGeometry x="0.7778" y="-5" relative="1" as="geometry">
            <Array as="points">
              <mxPoint x="11500" y="95" />
              <mxPoint x="11500" y="95" />
            </Array>
            <mxPoint as="offset" />
          </mxGeometry>
        </mxCell>
        <mxCell id="FoQC7-eRkNToFo1l5HI7-251" value="" style="swimlane;startSize=0;" parent="1" vertex="1">
          <mxGeometry x="12390" y="880" width="490" height="370" as="geometry" />
        </mxCell>
        <mxCell id="FoQC7-eRkNToFo1l5HI7-252" value="" style="edgeStyle=orthogonalEdgeStyle;rounded=0;orthogonalLoop=1;jettySize=auto;html=1;" parent="FoQC7-eRkNToFo1l5HI7-251" source="FoQC7-eRkNToFo1l5HI7-257" target="FoQC7-eRkNToFo1l5HI7-258" edge="1">
          <mxGeometry relative="1" as="geometry" />
        </mxCell>
        <mxCell id="FoQC7-eRkNToFo1l5HI7-253" value="" style="edgeStyle=orthogonalEdgeStyle;rounded=0;orthogonalLoop=1;jettySize=auto;html=1;" parent="FoQC7-eRkNToFo1l5HI7-251" source="FoQC7-eRkNToFo1l5HI7-257" target="FoQC7-eRkNToFo1l5HI7-259" edge="1">
          <mxGeometry relative="1" as="geometry">
            <Array as="points">
              <mxPoint x="71" y="70" />
            </Array>
          </mxGeometry>
        </mxCell>
        <mxCell id="FoQC7-eRkNToFo1l5HI7-254" value="" style="edgeStyle=orthogonalEdgeStyle;rounded=0;orthogonalLoop=1;jettySize=auto;html=1;" parent="FoQC7-eRkNToFo1l5HI7-251" source="FoQC7-eRkNToFo1l5HI7-257" target="FoQC7-eRkNToFo1l5HI7-260" edge="1">
          <mxGeometry relative="1" as="geometry" />
        </mxCell>
        <mxCell id="FoQC7-eRkNToFo1l5HI7-255" value="" style="edgeStyle=orthogonalEdgeStyle;rounded=0;orthogonalLoop=1;jettySize=auto;html=1;" parent="FoQC7-eRkNToFo1l5HI7-251" source="FoQC7-eRkNToFo1l5HI7-257" target="FoQC7-eRkNToFo1l5HI7-261" edge="1">
          <mxGeometry relative="1" as="geometry" />
        </mxCell>
        <mxCell id="FoQC7-eRkNToFo1l5HI7-256" value="" style="edgeStyle=orthogonalEdgeStyle;rounded=0;orthogonalLoop=1;jettySize=auto;html=1;" parent="FoQC7-eRkNToFo1l5HI7-251" source="FoQC7-eRkNToFo1l5HI7-257" target="FoQC7-eRkNToFo1l5HI7-262" edge="1">
          <mxGeometry relative="1" as="geometry" />
        </mxCell>
        <mxCell id="FoQC7-eRkNToFo1l5HI7-257" value="&lt;span style=&quot;font-size: 22px;&quot;&gt;&lt;b&gt;&amp;nbsp;institute_announcements&lt;/b&gt;&lt;/span&gt;&lt;div&gt;&lt;span style=&quot;font-size: 22px;&quot;&gt;&lt;b&gt;(اعلانات آموزشگاه)&lt;/b&gt;&lt;/span&gt;&lt;/div&gt;" style="whiteSpace=wrap;html=1;align=center;" parent="FoQC7-eRkNToFo1l5HI7-251" vertex="1">
          <mxGeometry x="140" y="10" width="310" height="80" as="geometry" />
        </mxCell>
        <mxCell id="FoQC7-eRkNToFo1l5HI7-258" value="id" style="ellipse;whiteSpace=wrap;html=1;" parent="FoQC7-eRkNToFo1l5HI7-251" vertex="1">
          <mxGeometry x="120.55" y="210" width="80" height="80" as="geometry" />
        </mxCell>
        <mxCell id="FoQC7-eRkNToFo1l5HI7-259" value="user_id" style="ellipse;whiteSpace=wrap;html=1;" parent="FoQC7-eRkNToFo1l5HI7-251" vertex="1">
          <mxGeometry x="30.55" y="230" width="80" height="80" as="geometry" />
        </mxCell>
        <mxCell id="FoQC7-eRkNToFo1l5HI7-260" value="content" style="ellipse;whiteSpace=wrap;html=1;" parent="FoQC7-eRkNToFo1l5HI7-251" vertex="1">
          <mxGeometry x="360" y="140" width="80" height="80" as="geometry" />
        </mxCell>
        <mxCell id="FoQC7-eRkNToFo1l5HI7-261" value="created_at" style="ellipse;whiteSpace=wrap;html=1;" parent="FoQC7-eRkNToFo1l5HI7-251" vertex="1">
          <mxGeometry x="220" y="270" width="80" height="80" as="geometry" />
        </mxCell>
        <mxCell id="FoQC7-eRkNToFo1l5HI7-262" value="update_at" style="ellipse;whiteSpace=wrap;html=1;" parent="FoQC7-eRkNToFo1l5HI7-251" vertex="1">
          <mxGeometry x="310" y="240" width="80" height="80" as="geometry" />
        </mxCell>
        <mxCell id="FoQC7-eRkNToFo1l5HI7-263" value="1" style="edgeStyle=orthogonalEdgeStyle;rounded=0;orthogonalLoop=1;jettySize=auto;html=1;" parent="1" source="FoQC7-eRkNToFo1l5HI7-264" target="FoQC7-eRkNToFo1l5HI7-25" edge="1">
          <mxGeometry x="-0.9235" relative="1" as="geometry">
            <Array as="points">
              <mxPoint x="11790" y="480" />
            </Array>
            <mxPoint as="offset" />
          </mxGeometry>
        </mxCell>
        <mxCell id="FoQC7-eRkNToFo1l5HI7-264" value="Announced_by&lt;div&gt;(اعلان شده توسط)&lt;/div&gt;" style="rhombus;whiteSpace=wrap;html=1;" parent="1" vertex="1">
          <mxGeometry x="12377.5" y="470" width="130" height="110" as="geometry" />
        </mxCell>
        <mxCell id="FoQC7-eRkNToFo1l5HI7-265" value="N" style="edgeStyle=orthogonalEdgeStyle;rounded=0;orthogonalLoop=1;jettySize=auto;html=1;shape=link;" parent="1" source="FoQC7-eRkNToFo1l5HI7-257" target="FoQC7-eRkNToFo1l5HI7-264" edge="1">
          <mxGeometry x="0.7858" y="3" relative="1" as="geometry">
            <mxPoint as="offset" />
          </mxGeometry>
        </mxCell>
        <mxCell id="FoQC7-eRkNToFo1l5HI7-266" value="n" style="edgeStyle=orthogonalEdgeStyle;rounded=0;orthogonalLoop=1;jettySize=auto;html=1;" parent="1" source="FoQC7-eRkNToFo1l5HI7-25" target="FoQC7-eRkNToFo1l5HI7-273" edge="1">
          <mxGeometry x="0.964" y="5" relative="1" as="geometry">
            <Array as="points">
              <mxPoint x="11790" y="475" />
            </Array>
            <mxPoint as="offset" />
          </mxGeometry>
        </mxCell>
        <mxCell id="FoQC7-eRkNToFo1l5HI7-267" style="edgeStyle=orthogonalEdgeStyle;rounded=0;orthogonalLoop=1;jettySize=auto;html=1;" parent="1" source="FoQC7-eRkNToFo1l5HI7-273" target="FoQC7-eRkNToFo1l5HI7-274" edge="1">
          <mxGeometry relative="1" as="geometry" />
        </mxCell>
        <mxCell id="FoQC7-eRkNToFo1l5HI7-268" style="edgeStyle=orthogonalEdgeStyle;rounded=0;orthogonalLoop=1;jettySize=auto;html=1;" parent="1" source="FoQC7-eRkNToFo1l5HI7-273" target="FoQC7-eRkNToFo1l5HI7-276" edge="1">
          <mxGeometry relative="1" as="geometry">
            <Array as="points">
              <mxPoint x="10660" y="475" />
            </Array>
          </mxGeometry>
        </mxCell>
        <mxCell id="FoQC7-eRkNToFo1l5HI7-269" style="edgeStyle=orthogonalEdgeStyle;rounded=0;orthogonalLoop=1;jettySize=auto;html=1;" parent="1" source="FoQC7-eRkNToFo1l5HI7-273" target="FoQC7-eRkNToFo1l5HI7-275" edge="1">
          <mxGeometry relative="1" as="geometry" />
        </mxCell>
        <mxCell id="FoQC7-eRkNToFo1l5HI7-270" style="edgeStyle=orthogonalEdgeStyle;rounded=0;orthogonalLoop=1;jettySize=auto;html=1;" parent="1" source="FoQC7-eRkNToFo1l5HI7-273" target="FoQC7-eRkNToFo1l5HI7-278" edge="1">
          <mxGeometry relative="1" as="geometry" />
        </mxCell>
        <mxCell id="FoQC7-eRkNToFo1l5HI7-271" style="edgeStyle=orthogonalEdgeStyle;rounded=0;orthogonalLoop=1;jettySize=auto;html=1;" parent="1" source="FoQC7-eRkNToFo1l5HI7-273" target="FoQC7-eRkNToFo1l5HI7-279" edge="1">
          <mxGeometry relative="1" as="geometry">
            <Array as="points">
              <mxPoint x="10780" y="535" />
              <mxPoint x="10780" y="535" />
            </Array>
          </mxGeometry>
        </mxCell>
        <mxCell id="FoQC7-eRkNToFo1l5HI7-272" style="edgeStyle=orthogonalEdgeStyle;rounded=0;orthogonalLoop=1;jettySize=auto;html=1;" parent="1" source="FoQC7-eRkNToFo1l5HI7-273" target="FoQC7-eRkNToFo1l5HI7-277" edge="1">
          <mxGeometry relative="1" as="geometry" />
        </mxCell>
        <mxCell id="FoQC7-eRkNToFo1l5HI7-273" value="&lt;span data-darkreader-inline-border-left=&quot;&quot; data-darkreader-inline-border-bottom=&quot;&quot; data-darkreader-inline-border-right=&quot;&quot; data-darkreader-inline-border-top=&quot;&quot; style=&quot;scrollbar-color: rgb(179, 169, 151) rgb(231, 221, 201); font-size: 22px; --darkreader-inline-border-top: var(--darkreader-border-1b1b1a, #31312e); --darkreader-inline-border-right: var(--darkreader-border-1b1b1a, #31312e); --darkreader-inline-border-bottom: var(--darkreader-border-1b1b1a, #31312e); --darkreader-inline-border-left: var(--darkreader-border-1b1b1a, #31312e); border-color: rgb(27, 27, 26);&quot;&gt;&lt;b data-darkreader-inline-border-left=&quot;&quot; data-darkreader-inline-border-bottom=&quot;&quot; data-darkreader-inline-border-right=&quot;&quot; data-darkreader-inline-border-top=&quot;&quot; style=&quot;scrollbar-color: rgb(179, 169, 151) rgb(231, 221, 201); --darkreader-inline-border-top: var(--darkreader-border-1b1b1a, #31312e); --darkreader-inline-border-right: var(--darkreader-border-1b1b1a, #31312e); --darkreader-inline-border-bottom: var(--darkreader-border-1b1b1a, #31312e); --darkreader-inline-border-left: var(--darkreader-border-1b1b1a, #31312e); border-color: rgb(27, 27, 26);&quot;&gt;attendancess&lt;/b&gt;&lt;/span&gt;&lt;div data-darkreader-inline-border-left=&quot;&quot; data-darkreader-inline-border-bottom=&quot;&quot; data-darkreader-inline-border-right=&quot;&quot; data-darkreader-inline-border-top=&quot;&quot; style=&quot;scrollbar-color: rgb(179, 169, 151) rgb(231, 221, 201); --darkreader-inline-border-top: var(--darkreader-border-1b1b1a, #31312e); --darkreader-inline-border-right: var(--darkreader-border-1b1b1a, #31312e); --darkreader-inline-border-bottom: var(--darkreader-border-1b1b1a, #31312e); --darkreader-inline-border-left: var(--darkreader-border-1b1b1a, #31312e); border-color: rgb(27, 27, 26);&quot;&gt;&lt;span data-darkreader-inline-border-left=&quot;&quot; data-darkreader-inline-border-bottom=&quot;&quot; data-darkreader-inline-border-right=&quot;&quot; data-darkreader-inline-border-top=&quot;&quot; style=&quot;scrollbar-color: rgb(179, 169, 151) rgb(231, 221, 201); font-size: 22px; --darkreader-inline-border-top: var(--darkreader-border-1b1b1a, #31312e); --darkreader-inline-border-right: var(--darkreader-border-1b1b1a, #31312e); --darkreader-inline-border-bottom: var(--darkreader-border-1b1b1a, #31312e); --darkreader-inline-border-left: var(--darkreader-border-1b1b1a, #31312e); border-color: rgb(27, 27, 26);&quot;&gt;&lt;b data-darkreader-inline-border-left=&quot;&quot; data-darkreader-inline-border-bottom=&quot;&quot; data-darkreader-inline-border-right=&quot;&quot; data-darkreader-inline-border-top=&quot;&quot; style=&quot;scrollbar-color: rgb(179, 169, 151) rgb(231, 221, 201); --darkreader-inline-border-top: var(--darkreader-border-1b1b1a, #31312e); --darkreader-inline-border-right: var(--darkreader-border-1b1b1a, #31312e); --darkreader-inline-border-bottom: var(--darkreader-border-1b1b1a, #31312e); --darkreader-inline-border-left: var(--darkreader-border-1b1b1a, #31312e); border-color: rgb(27, 27, 26);&quot;&gt;(حضور یا غیبت)&lt;/b&gt;&lt;/span&gt;&lt;/div&gt;" style="rhombus;whiteSpace=wrap;html=1;" parent="1" vertex="1">
          <mxGeometry x="10790" y="420" width="230" height="110" as="geometry" />
        </mxCell>
        <mxCell id="FoQC7-eRkNToFo1l5HI7-274" value="id" style="ellipse;whiteSpace=wrap;html=1;" parent="1" vertex="1">
          <mxGeometry x="10700" y="285" width="80" height="80" as="geometry" />
        </mxCell>
        <mxCell id="FoQC7-eRkNToFo1l5HI7-275" value="session_id" style="ellipse;whiteSpace=wrap;html=1;" parent="1" vertex="1">
          <mxGeometry x="10520" y="285" width="80" height="80" as="geometry" />
        </mxCell>
        <mxCell id="FoQC7-eRkNToFo1l5HI7-276" value="user_id" style="ellipse;whiteSpace=wrap;html=1;" parent="1" vertex="1">
          <mxGeometry x="10610" y="285" width="80" height="80" as="geometry" />
        </mxCell>
        <mxCell id="FoQC7-eRkNToFo1l5HI7-277" value="details" style="ellipse;whiteSpace=wrap;html=1;" parent="1" vertex="1">
          <mxGeometry x="10440" y="435" width="80" height="80" as="geometry" />
        </mxCell>
        <mxCell id="FoQC7-eRkNToFo1l5HI7-278" value="created_at" style="ellipse;whiteSpace=wrap;html=1;" parent="1" vertex="1">
          <mxGeometry x="10650" y="555" width="80" height="80" as="geometry" />
        </mxCell>
        <mxCell id="FoQC7-eRkNToFo1l5HI7-279" value="updated_id" style="ellipse;whiteSpace=wrap;html=1;" parent="1" vertex="1">
          <mxGeometry x="10740" y="555" width="80" height="80" as="geometry" />
        </mxCell>
        <mxCell id="FoQC7-eRkNToFo1l5HI7-280" value="id" style="ellipse;whiteSpace=wrap;html=1;" parent="1" vertex="1">
          <mxGeometry x="11350" y="-60" width="80" height="80" as="geometry" />
        </mxCell>
        <mxCell id="FoQC7-eRkNToFo1l5HI7-281" value="article_id" style="ellipse;whiteSpace=wrap;html=1;" parent="1" vertex="1">
          <mxGeometry x="11190" y="-60" width="80" height="80" as="geometry" />
        </mxCell>
        <mxCell id="FoQC7-eRkNToFo1l5HI7-282" value="user_id" style="ellipse;whiteSpace=wrap;html=1;" parent="1" vertex="1">
          <mxGeometry x="11270" y="-90" width="80" height="80" as="geometry" />
        </mxCell>
        <mxCell id="FoQC7-eRkNToFo1l5HI7-283" value="created_at" style="ellipse;whiteSpace=wrap;html=1;" parent="1" vertex="1">
          <mxGeometry x="11230" y="170" width="80" height="80" as="geometry" />
        </mxCell>
        <mxCell id="FoQC7-eRkNToFo1l5HI7-284" value="updated_id" style="ellipse;whiteSpace=wrap;html=1;" parent="1" vertex="1">
          <mxGeometry x="11310" y="170" width="80" height="80" as="geometry" />
        </mxCell>
        <mxCell id="FoQC7-eRkNToFo1l5HI7-285" value="created_at" style="ellipse;whiteSpace=wrap;html=1;" parent="1" vertex="1">
          <mxGeometry x="12345" y="-100" width="80" height="80" as="geometry" />
        </mxCell>
        <mxCell id="FoQC7-eRkNToFo1l5HI7-286" value="" style="edgeStyle=orthogonalEdgeStyle;rounded=0;orthogonalLoop=1;jettySize=auto;html=1;" parent="1" source="FoQC7-eRkNToFo1l5HI7-27" target="FoQC7-eRkNToFo1l5HI7-285" edge="1">
          <mxGeometry relative="1" as="geometry" />
        </mxCell>
        <mxCell id="FoQC7-eRkNToFo1l5HI7-287" value="updated_at" style="ellipse;whiteSpace=wrap;html=1;" parent="1" vertex="1">
          <mxGeometry x="12460" y="-100" width="80" height="80" as="geometry" />
        </mxCell>
        <mxCell id="FoQC7-eRkNToFo1l5HI7-288" value="" style="edgeStyle=orthogonalEdgeStyle;rounded=0;orthogonalLoop=1;jettySize=auto;html=1;" parent="1" source="FoQC7-eRkNToFo1l5HI7-27" target="FoQC7-eRkNToFo1l5HI7-287" edge="1">
          <mxGeometry relative="1" as="geometry">
            <Array as="points">
              <mxPoint x="12385" y="30" />
            </Array>
          </mxGeometry>
        </mxCell>
        <mxCell id="FoQC7-eRkNToFo1l5HI7-289" value="user_id" style="ellipse;whiteSpace=wrap;html=1;" parent="1" vertex="1">
          <mxGeometry x="12250" y="170" width="80" height="80" as="geometry" />
        </mxCell>
        <mxCell id="FoQC7-eRkNToFo1l5HI7-290" value="" style="edgeStyle=orthogonalEdgeStyle;rounded=0;orthogonalLoop=1;jettySize=auto;html=1;" parent="1" source="FoQC7-eRkNToFo1l5HI7-27" target="FoQC7-eRkNToFo1l5HI7-289" edge="1">
          <mxGeometry relative="1" as="geometry" />
        </mxCell>
        <mxCell id="FoQC7-eRkNToFo1l5HI7-291" value="1" style="edgeStyle=orthogonalEdgeStyle;rounded=0;orthogonalLoop=1;jettySize=auto;html=1;" parent="1" source="FoQC7-eRkNToFo1l5HI7-25" target="FoQC7-eRkNToFo1l5HI7-173" edge="1">
          <mxGeometry x="0.925" relative="1" as="geometry">
            <Array as="points">
              <mxPoint x="11790" y="660" />
            </Array>
            <mxPoint as="offset" />
          </mxGeometry>
        </mxCell>
        <mxCell id="FoQC7-eRkNToFo1l5HI7-293" value="" style="swimlane;startSize=0;" parent="1" vertex="1">
          <mxGeometry x="12170" y="-680" width="540" height="350" as="geometry" />
        </mxCell>
        <mxCell id="FoQC7-eRkNToFo1l5HI7-294" style="edgeStyle=orthogonalEdgeStyle;rounded=0;orthogonalLoop=1;jettySize=auto;html=1;" parent="FoQC7-eRkNToFo1l5HI7-293" source="FoQC7-eRkNToFo1l5HI7-300" target="FoQC7-eRkNToFo1l5HI7-303" edge="1">
          <mxGeometry relative="1" as="geometry" />
        </mxCell>
        <mxCell id="FoQC7-eRkNToFo1l5HI7-295" style="edgeStyle=orthogonalEdgeStyle;rounded=0;orthogonalLoop=1;jettySize=auto;html=1;" parent="FoQC7-eRkNToFo1l5HI7-293" source="FoQC7-eRkNToFo1l5HI7-300" target="FoQC7-eRkNToFo1l5HI7-302" edge="1">
          <mxGeometry relative="1" as="geometry" />
        </mxCell>
        <mxCell id="FoQC7-eRkNToFo1l5HI7-296" style="edgeStyle=orthogonalEdgeStyle;rounded=0;orthogonalLoop=1;jettySize=auto;html=1;" parent="FoQC7-eRkNToFo1l5HI7-293" source="FoQC7-eRkNToFo1l5HI7-300" target="FoQC7-eRkNToFo1l5HI7-301" edge="1">
          <mxGeometry relative="1" as="geometry">
            <Array as="points">
              <mxPoint x="330" y="170" />
              <mxPoint x="440" y="170" />
            </Array>
          </mxGeometry>
        </mxCell>
        <mxCell id="FoQC7-eRkNToFo1l5HI7-297" value="" style="edgeStyle=orthogonalEdgeStyle;rounded=0;orthogonalLoop=1;jettySize=auto;html=1;" parent="FoQC7-eRkNToFo1l5HI7-293" source="FoQC7-eRkNToFo1l5HI7-300" target="FoQC7-eRkNToFo1l5HI7-304" edge="1">
          <mxGeometry relative="1" as="geometry" />
        </mxCell>
        <mxCell id="FoQC7-eRkNToFo1l5HI7-298" value="" style="edgeStyle=orthogonalEdgeStyle;rounded=0;orthogonalLoop=1;jettySize=auto;html=1;" parent="FoQC7-eRkNToFo1l5HI7-293" source="FoQC7-eRkNToFo1l5HI7-300" target="FoQC7-eRkNToFo1l5HI7-302" edge="1">
          <mxGeometry relative="1" as="geometry" />
        </mxCell>
        <mxCell id="FoQC7-eRkNToFo1l5HI7-299" value="" style="edgeStyle=orthogonalEdgeStyle;rounded=0;orthogonalLoop=1;jettySize=auto;html=1;" parent="FoQC7-eRkNToFo1l5HI7-293" source="FoQC7-eRkNToFo1l5HI7-300" target="FoQC7-eRkNToFo1l5HI7-305" edge="1">
          <mxGeometry relative="1" as="geometry" />
        </mxCell>
        <mxCell id="RJPY4_y7m73RUoFWxOmp-1" value="" style="edgeStyle=orthogonalEdgeStyle;rounded=0;orthogonalLoop=1;jettySize=auto;html=1;" parent="FoQC7-eRkNToFo1l5HI7-293" source="FoQC7-eRkNToFo1l5HI7-300" target="FoQC7-eRkNToFo1l5HI7-304" edge="1">
          <mxGeometry relative="1" as="geometry" />
        </mxCell>
        <mxCell id="RJPY4_y7m73RUoFWxOmp-3" value="" style="edgeStyle=orthogonalEdgeStyle;rounded=0;orthogonalLoop=1;jettySize=auto;html=1;" parent="FoQC7-eRkNToFo1l5HI7-293" source="FoQC7-eRkNToFo1l5HI7-300" target="RJPY4_y7m73RUoFWxOmp-2" edge="1">
          <mxGeometry relative="1" as="geometry" />
        </mxCell>
        <mxCell id="FoQC7-eRkNToFo1l5HI7-300" value="&lt;br&gt;&lt;div&gt;&lt;span style=&quot;font-size:14.0pt;line-height:115%;&lt;br/&gt;font-family:&amp;quot;JetBrainsMono NF Light&amp;quot;,sans-serif;mso-fareast-font-family:Arial;&lt;br/&gt;mso-bidi-font-family:&amp;quot;B Nazanin&amp;quot;;mso-ansi-language:EN-US;mso-fareast-language:&lt;br/&gt;EN-US;mso-bidi-language:FA&quot;&gt;level_determination_ tests&lt;/span&gt;&lt;span style=&quot;font-size: 22px;&quot;&gt;&lt;b&gt;&lt;/b&gt;&lt;/span&gt;&lt;/div&gt;&lt;div&gt;&lt;span style=&quot;font-size: 22px;&quot;&gt;&lt;b&gt;(تعیین سطح)&lt;/b&gt;&lt;/span&gt;&lt;/div&gt;" style="whiteSpace=wrap;html=1;align=center;" parent="FoQC7-eRkNToFo1l5HI7-293" vertex="1">
          <mxGeometry x="200" y="190" width="260" height="100" as="geometry" />
        </mxCell>
        <mxCell id="FoQC7-eRkNToFo1l5HI7-301" value="created_at" style="ellipse;whiteSpace=wrap;html=1;" parent="FoQC7-eRkNToFo1l5HI7-293" vertex="1">
          <mxGeometry x="400" y="50" width="80" height="80" as="geometry" />
        </mxCell>
        <mxCell id="FoQC7-eRkNToFo1l5HI7-302" value="updated_at" style="ellipse;whiteSpace=wrap;html=1;" parent="FoQC7-eRkNToFo1l5HI7-293" vertex="1">
          <mxGeometry x="315" y="50" width="80" height="80" as="geometry" />
        </mxCell>
        <mxCell id="FoQC7-eRkNToFo1l5HI7-303" value="id" style="strokeWidth=2;html=1;shape=mxgraph.flowchart.sequential_data;whiteSpace=wrap;" parent="FoQC7-eRkNToFo1l5HI7-293" vertex="1">
          <mxGeometry x="100" y="40" width="100" height="100" as="geometry" />
        </mxCell>
        <mxCell id="FoQC7-eRkNToFo1l5HI7-304" value="score" style="ellipse;whiteSpace=wrap;html=1;" parent="FoQC7-eRkNToFo1l5HI7-293" vertex="1">
          <mxGeometry x="20" y="130" width="80" height="80" as="geometry" />
        </mxCell>
        <mxCell id="FoQC7-eRkNToFo1l5HI7-305" value="user_id" style="ellipse;whiteSpace=wrap;html=1;" parent="FoQC7-eRkNToFo1l5HI7-293" vertex="1">
          <mxGeometry x="220" y="50" width="80" height="80" as="geometry" />
        </mxCell>
        <mxCell id="RJPY4_y7m73RUoFWxOmp-2" value="level" style="ellipse;whiteSpace=wrap;html=1;" parent="FoQC7-eRkNToFo1l5HI7-293" vertex="1">
          <mxGeometry x="40" y="240" width="85" height="90" as="geometry" />
        </mxCell>
        <mxCell id="FoQC7-eRkNToFo1l5HI7-306" value="1" style="edgeStyle=orthogonalEdgeStyle;rounded=0;orthogonalLoop=1;jettySize=auto;html=1;shape=link;" parent="1" source="FoQC7-eRkNToFo1l5HI7-307" target="FoQC7-eRkNToFo1l5HI7-25" edge="1">
          <mxGeometry relative="1" as="geometry">
            <Array as="points">
              <mxPoint x="12190" y="-260" />
              <mxPoint x="12190" y="95" />
            </Array>
          </mxGeometry>
        </mxCell>
        <mxCell id="FoQC7-eRkNToFo1l5HI7-307" value="Has&lt;div&gt;(دارد)&lt;/div&gt;" style="rhombus;whiteSpace=wrap;html=1;" parent="1" vertex="1">
          <mxGeometry x="12427.5" y="-300" width="80" height="80" as="geometry" />
        </mxCell>
        <mxCell id="FoQC7-eRkNToFo1l5HI7-308" value="n" style="edgeStyle=orthogonalEdgeStyle;rounded=0;orthogonalLoop=1;jettySize=auto;html=1;shape=link;" parent="1" source="FoQC7-eRkNToFo1l5HI7-300" target="FoQC7-eRkNToFo1l5HI7-307" edge="1">
          <mxGeometry x="0.0101" relative="1" as="geometry">
            <mxPoint as="offset" />
          </mxGeometry>
        </mxCell>
        <mxCell id="FoQC7-eRkNToFo1l5HI7-309" value="active" style="ellipse;whiteSpace=wrap;html=1;" parent="1" vertex="1">
          <mxGeometry x="12450" y="165" width="80" height="80" as="geometry" />
        </mxCell>
        <mxCell id="FoQC7-eRkNToFo1l5HI7-310" style="edgeStyle=orthogonalEdgeStyle;rounded=0;orthogonalLoop=1;jettySize=auto;html=1;" parent="1" source="FoQC7-eRkNToFo1l5HI7-27" target="FoQC7-eRkNToFo1l5HI7-309" edge="1">
          <mxGeometry relative="1" as="geometry" />
        </mxCell>
        <mxCell id="FoQC7-eRkNToFo1l5HI7-311" value="role_id" style="ellipse;whiteSpace=wrap;html=1;" parent="1" vertex="1">
          <mxGeometry x="12345" y="165" width="80" height="80" as="geometry" />
        </mxCell>
        <mxCell id="FoQC7-eRkNToFo1l5HI7-312" value="" style="edgeStyle=orthogonalEdgeStyle;rounded=0;orthogonalLoop=1;jettySize=auto;html=1;" parent="1" source="FoQC7-eRkNToFo1l5HI7-27" target="FoQC7-eRkNToFo1l5HI7-311" edge="1">
          <mxGeometry relative="1" as="geometry" />
        </mxCell>
        <mxCell id="FoQC7-eRkNToFo1l5HI7-313" value="id" style="ellipse;whiteSpace=wrap;html=1;" parent="1" vertex="1">
          <mxGeometry x="11820" y="2270" width="80" height="80" as="geometry" />
        </mxCell>
        <mxCell id="FoQC7-eRkNToFo1l5HI7-314" value="class_id" style="ellipse;whiteSpace=wrap;html=1;" parent="1" vertex="1">
          <mxGeometry x="11810" y="2360" width="80" height="80" as="geometry" />
        </mxCell>
        <mxCell id="FoQC7-eRkNToFo1l5HI7-315" value="timeslot_id" style="ellipse;whiteSpace=wrap;html=1;" parent="1" vertex="1">
          <mxGeometry x="11820" y="2459.21" width="80" height="80" as="geometry" />
        </mxCell>
        <mxCell id="FoQC7-eRkNToFo1l5HI7-316" value="created_at" style="ellipse;whiteSpace=wrap;html=1;" parent="1" vertex="1">
          <mxGeometry x="12110" y="2420" width="80" height="80" as="geometry" />
        </mxCell>
        <mxCell id="FoQC7-eRkNToFo1l5HI7-317" value="updated_at" style="ellipse;whiteSpace=wrap;html=1;" parent="1" vertex="1">
          <mxGeometry x="12115" y="2330" width="80" height="80" as="geometry" />
        </mxCell>
        <mxCell id="FoQC7-eRkNToFo1l5HI7-318" value="" style="swimlane;startSize=0;" parent="1" vertex="1">
          <mxGeometry x="12770" y="367.5" width="440" height="405" as="geometry" />
        </mxCell>
        <mxCell id="FoQC7-eRkNToFo1l5HI7-319" value="created_at" style="ellipse;whiteSpace=wrap;html=1;" parent="FoQC7-eRkNToFo1l5HI7-318" vertex="1">
          <mxGeometry x="320" y="250" width="80" height="80" as="geometry" />
        </mxCell>
        <mxCell id="FoQC7-eRkNToFo1l5HI7-320" value="updated_at" style="ellipse;whiteSpace=wrap;html=1;" parent="FoQC7-eRkNToFo1l5HI7-318" vertex="1">
          <mxGeometry x="360" y="125" width="80" height="80" as="geometry" />
        </mxCell>
        <mxCell id="FoQC7-eRkNToFo1l5HI7-321" value="id" style="shape=tapeData;whiteSpace=wrap;html=1;perimeter=ellipsePerimeter;" parent="FoQC7-eRkNToFo1l5HI7-318" vertex="1">
          <mxGeometry x="70" y="20" width="80" height="80" as="geometry" />
        </mxCell>
        <mxCell id="FoQC7-eRkNToFo1l5HI7-322" value="name" style="ellipse;whiteSpace=wrap;html=1;" parent="FoQC7-eRkNToFo1l5HI7-318" vertex="1">
          <mxGeometry x="210" y="40" width="80" height="80" as="geometry" />
        </mxCell>
        <mxCell id="FoQC7-eRkNToFo1l5HI7-323" value="" style="edgeStyle=orthogonalEdgeStyle;rounded=0;orthogonalLoop=1;jettySize=auto;html=1;" parent="FoQC7-eRkNToFo1l5HI7-318" source="FoQC7-eRkNToFo1l5HI7-327" target="FoQC7-eRkNToFo1l5HI7-321" edge="1">
          <mxGeometry relative="1" as="geometry">
            <mxPoint x="60.00000000000091" y="160" as="targetPoint" />
          </mxGeometry>
        </mxCell>
        <mxCell id="FoQC7-eRkNToFo1l5HI7-324" value="" style="edgeStyle=orthogonalEdgeStyle;rounded=0;orthogonalLoop=1;jettySize=auto;html=1;" parent="FoQC7-eRkNToFo1l5HI7-318" source="FoQC7-eRkNToFo1l5HI7-327" target="FoQC7-eRkNToFo1l5HI7-322" edge="1">
          <mxGeometry relative="1" as="geometry" />
        </mxCell>
        <mxCell id="FoQC7-eRkNToFo1l5HI7-325" value="" style="edgeStyle=orthogonalEdgeStyle;rounded=0;orthogonalLoop=1;jettySize=auto;html=1;" parent="FoQC7-eRkNToFo1l5HI7-318" source="FoQC7-eRkNToFo1l5HI7-327" target="FoQC7-eRkNToFo1l5HI7-319" edge="1">
          <mxGeometry relative="1" as="geometry" />
        </mxCell>
        <mxCell id="FoQC7-eRkNToFo1l5HI7-326" value="" style="edgeStyle=orthogonalEdgeStyle;rounded=0;orthogonalLoop=1;jettySize=auto;html=1;" parent="FoQC7-eRkNToFo1l5HI7-318" source="FoQC7-eRkNToFo1l5HI7-327" target="FoQC7-eRkNToFo1l5HI7-320" edge="1">
          <mxGeometry relative="1" as="geometry">
            <Array as="points">
              <mxPoint x="340" y="215" />
              <mxPoint x="340" y="165" />
            </Array>
          </mxGeometry>
        </mxCell>
        <mxCell id="FoQC7-eRkNToFo1l5HI7-330" value="" style="edgeStyle=orthogonalEdgeStyle;rounded=0;orthogonalLoop=1;jettySize=auto;html=1;" parent="FoQC7-eRkNToFo1l5HI7-318" source="FoQC7-eRkNToFo1l5HI7-327" target="FoQC7-eRkNToFo1l5HI7-329" edge="1">
          <mxGeometry relative="1" as="geometry" />
        </mxCell>
        <mxCell id="FoQC7-eRkNToFo1l5HI7-327" value="&lt;span style=&quot;font-size: 22px;&quot;&gt;&lt;b&gt;permissions&lt;/b&gt;&lt;/span&gt;&lt;br&gt;&lt;div&gt;&lt;b&gt;&lt;font style=&quot;font-size: 22px;&quot;&gt;(دسترسی ها)&lt;/font&gt;&lt;/b&gt;&lt;/div&gt;" style="whiteSpace=wrap;html=1;align=center;" parent="FoQC7-eRkNToFo1l5HI7-318" vertex="1">
          <mxGeometry x="40" y="180" width="240" height="70" as="geometry" />
        </mxCell>
        <mxCell id="FoQC7-eRkNToFo1l5HI7-329" value="description" style="ellipse;whiteSpace=wrap;html=1;" parent="FoQC7-eRkNToFo1l5HI7-318" vertex="1">
          <mxGeometry x="120" y="280" width="80" height="80" as="geometry" />
        </mxCell>
        <mxCell id="FoQC7-eRkNToFo1l5HI7-333" value="m" style="edgeStyle=orthogonalEdgeStyle;rounded=0;orthogonalLoop=1;jettySize=auto;html=1;shape=link;" parent="1" source="FoQC7-eRkNToFo1l5HI7-331" target="FoQC7-eRkNToFo1l5HI7-61" edge="1">
          <mxGeometry relative="1" as="geometry">
            <Array as="points">
              <mxPoint x="13140" y="88" />
              <mxPoint x="13140" y="88" />
            </Array>
          </mxGeometry>
        </mxCell>
        <mxCell id="FoQC7-eRkNToFo1l5HI7-359" style="edgeStyle=orthogonalEdgeStyle;rounded=0;orthogonalLoop=1;jettySize=auto;html=1;" parent="1" source="FoQC7-eRkNToFo1l5HI7-331" target="FoQC7-eRkNToFo1l5HI7-352" edge="1">
          <mxGeometry relative="1" as="geometry">
            <Array as="points">
              <mxPoint x="13400" y="50" />
            </Array>
          </mxGeometry>
        </mxCell>
        <mxCell id="FoQC7-eRkNToFo1l5HI7-360" style="edgeStyle=orthogonalEdgeStyle;rounded=0;orthogonalLoop=1;jettySize=auto;html=1;" parent="1" source="FoQC7-eRkNToFo1l5HI7-331" target="FoQC7-eRkNToFo1l5HI7-354" edge="1">
          <mxGeometry relative="1" as="geometry" />
        </mxCell>
        <mxCell id="FoQC7-eRkNToFo1l5HI7-361" style="edgeStyle=orthogonalEdgeStyle;rounded=0;orthogonalLoop=1;jettySize=auto;html=1;" parent="1" source="FoQC7-eRkNToFo1l5HI7-331" target="FoQC7-eRkNToFo1l5HI7-353" edge="1">
          <mxGeometry relative="1" as="geometry">
            <Array as="points">
              <mxPoint x="13585" y="50" />
            </Array>
          </mxGeometry>
        </mxCell>
        <mxCell id="FoQC7-eRkNToFo1l5HI7-362" style="edgeStyle=orthogonalEdgeStyle;rounded=0;orthogonalLoop=1;jettySize=auto;html=1;" parent="1" source="FoQC7-eRkNToFo1l5HI7-331" target="FoQC7-eRkNToFo1l5HI7-356" edge="1">
          <mxGeometry relative="1" as="geometry" />
        </mxCell>
        <mxCell id="FoQC7-eRkNToFo1l5HI7-363" style="edgeStyle=orthogonalEdgeStyle;rounded=0;orthogonalLoop=1;jettySize=auto;html=1;" parent="1" source="FoQC7-eRkNToFo1l5HI7-331" target="FoQC7-eRkNToFo1l5HI7-357" edge="1">
          <mxGeometry relative="1" as="geometry" />
        </mxCell>
        <mxCell id="FoQC7-eRkNToFo1l5HI7-331" value="Has&lt;div&gt;(دارد)&lt;/div&gt;" style="rhombus;whiteSpace=wrap;html=1;" parent="1" vertex="1">
          <mxGeometry x="13450" y="47.5" width="80" height="80" as="geometry" />
        </mxCell>
        <mxCell id="FoQC7-eRkNToFo1l5HI7-332" value="n" style="edgeStyle=orthogonalEdgeStyle;rounded=0;orthogonalLoop=1;jettySize=auto;html=1;shape=link;" parent="1" source="FoQC7-eRkNToFo1l5HI7-327" target="FoQC7-eRkNToFo1l5HI7-331" edge="1">
          <mxGeometry relative="1" as="geometry" />
        </mxCell>
        <mxCell id="FoQC7-eRkNToFo1l5HI7-352" value="id" style="ellipse;whiteSpace=wrap;html=1;" parent="1" vertex="1">
          <mxGeometry x="13360" y="-60" width="80" height="80" as="geometry" />
        </mxCell>
        <mxCell id="FoQC7-eRkNToFo1l5HI7-353" value="permission_id" style="ellipse;whiteSpace=wrap;html=1;" parent="1" vertex="1">
          <mxGeometry x="13540" y="-60" width="90" height="80" as="geometry" />
        </mxCell>
        <mxCell id="FoQC7-eRkNToFo1l5HI7-354" value="role_id" style="ellipse;whiteSpace=wrap;html=1;" parent="1" vertex="1">
          <mxGeometry x="13450" y="-60" width="80" height="80" as="geometry" />
        </mxCell>
        <mxCell id="FoQC7-eRkNToFo1l5HI7-356" value="created_at" style="ellipse;whiteSpace=wrap;html=1;" parent="1" vertex="1">
          <mxGeometry x="13380" y="180" width="80" height="80" as="geometry" />
        </mxCell>
        <mxCell id="FoQC7-eRkNToFo1l5HI7-357" value="updated_id" style="ellipse;whiteSpace=wrap;html=1;" parent="1" vertex="1">
          <mxGeometry x="13520" y="175" width="80" height="80" as="geometry" />
        </mxCell>
        <mxCell id="FoQC7-eRkNToFo1l5HI7-364" value="" style="swimlane;startSize=0;" parent="1" vertex="1">
          <mxGeometry x="10415" y="780" width="470" height="461" as="geometry" />
        </mxCell>
        <mxCell id="FoQC7-eRkNToFo1l5HI7-365" value="" style="edgeStyle=orthogonalEdgeStyle;rounded=0;orthogonalLoop=1;jettySize=auto;html=1;" parent="FoQC7-eRkNToFo1l5HI7-364" source="FoQC7-eRkNToFo1l5HI7-372" target="FoQC7-eRkNToFo1l5HI7-373" edge="1">
          <mxGeometry relative="1" as="geometry" />
        </mxCell>
        <mxCell id="FoQC7-eRkNToFo1l5HI7-366" value="" style="edgeStyle=orthogonalEdgeStyle;rounded=0;orthogonalLoop=1;jettySize=auto;html=1;" parent="FoQC7-eRkNToFo1l5HI7-364" source="FoQC7-eRkNToFo1l5HI7-372" target="FoQC7-eRkNToFo1l5HI7-374" edge="1">
          <mxGeometry relative="1" as="geometry" />
        </mxCell>
        <mxCell id="FoQC7-eRkNToFo1l5HI7-367" value="" style="edgeStyle=orthogonalEdgeStyle;rounded=0;orthogonalLoop=1;jettySize=auto;html=1;" parent="FoQC7-eRkNToFo1l5HI7-364" source="FoQC7-eRkNToFo1l5HI7-372" target="FoQC7-eRkNToFo1l5HI7-375" edge="1">
          <mxGeometry relative="1" as="geometry" />
        </mxCell>
        <mxCell id="FoQC7-eRkNToFo1l5HI7-368" value="" style="edgeStyle=orthogonalEdgeStyle;rounded=0;orthogonalLoop=1;jettySize=auto;html=1;" parent="FoQC7-eRkNToFo1l5HI7-364" source="FoQC7-eRkNToFo1l5HI7-372" target="FoQC7-eRkNToFo1l5HI7-376" edge="1">
          <mxGeometry relative="1" as="geometry" />
        </mxCell>
        <mxCell id="FoQC7-eRkNToFo1l5HI7-369" value="" style="edgeStyle=orthogonalEdgeStyle;rounded=0;orthogonalLoop=1;jettySize=auto;html=1;" parent="FoQC7-eRkNToFo1l5HI7-364" source="FoQC7-eRkNToFo1l5HI7-372" target="FoQC7-eRkNToFo1l5HI7-377" edge="1">
          <mxGeometry relative="1" as="geometry" />
        </mxCell>
        <mxCell id="FoQC7-eRkNToFo1l5HI7-370" value="" style="edgeStyle=orthogonalEdgeStyle;rounded=0;orthogonalLoop=1;jettySize=auto;html=1;" parent="FoQC7-eRkNToFo1l5HI7-364" source="FoQC7-eRkNToFo1l5HI7-372" target="FoQC7-eRkNToFo1l5HI7-378" edge="1">
          <mxGeometry relative="1" as="geometry" />
        </mxCell>
        <mxCell id="FoQC7-eRkNToFo1l5HI7-371" value="" style="edgeStyle=orthogonalEdgeStyle;rounded=0;orthogonalLoop=1;jettySize=auto;html=1;" parent="FoQC7-eRkNToFo1l5HI7-364" source="FoQC7-eRkNToFo1l5HI7-372" target="FoQC7-eRkNToFo1l5HI7-379" edge="1">
          <mxGeometry relative="1" as="geometry" />
        </mxCell>
        <mxCell id="FoQC7-eRkNToFo1l5HI7-381" style="edgeStyle=orthogonalEdgeStyle;rounded=0;orthogonalLoop=1;jettySize=auto;html=1;" parent="FoQC7-eRkNToFo1l5HI7-364" source="FoQC7-eRkNToFo1l5HI7-372" target="FoQC7-eRkNToFo1l5HI7-380" edge="1">
          <mxGeometry relative="1" as="geometry" />
        </mxCell>
        <mxCell id="FoQC7-eRkNToFo1l5HI7-383" value="" style="edgeStyle=orthogonalEdgeStyle;rounded=0;orthogonalLoop=1;jettySize=auto;html=1;" parent="FoQC7-eRkNToFo1l5HI7-364" source="FoQC7-eRkNToFo1l5HI7-372" target="FoQC7-eRkNToFo1l5HI7-382" edge="1">
          <mxGeometry relative="1" as="geometry" />
        </mxCell>
        <mxCell id="FoQC7-eRkNToFo1l5HI7-372" value="&lt;span style=&quot;font-size: 22px;&quot;&gt;&lt;b&gt;payments&lt;/b&gt;&lt;/span&gt;&lt;br&gt;&lt;div&gt;&lt;span style=&quot;font-size: 22px;&quot;&gt;&lt;b&gt;(پرداخت)&lt;/b&gt;&lt;/span&gt;&lt;/div&gt;" style="whiteSpace=wrap;html=1;align=center;" parent="FoQC7-eRkNToFo1l5HI7-364" vertex="1">
          <mxGeometry x="120" y="207.5" width="240" height="70" as="geometry" />
        </mxCell>
        <mxCell id="FoQC7-eRkNToFo1l5HI7-373" value="id" style="ellipse;whiteSpace=wrap;html=1;" parent="FoQC7-eRkNToFo1l5HI7-364" vertex="1">
          <mxGeometry x="10" y="151" width="80" height="80" as="geometry" />
        </mxCell>
        <mxCell id="FoQC7-eRkNToFo1l5HI7-374" value="enrollment_id" style="ellipse;whiteSpace=wrap;html=1;" parent="FoQC7-eRkNToFo1l5HI7-364" vertex="1">
          <mxGeometry x="30" y="31" width="90" height="80" as="geometry" />
        </mxCell>
        <mxCell id="FoQC7-eRkNToFo1l5HI7-375" value="payment_date" style="ellipse;whiteSpace=wrap;html=1;" parent="FoQC7-eRkNToFo1l5HI7-364" vertex="1">
          <mxGeometry x="20" y="321" width="91" height="80" as="geometry" />
        </mxCell>
        <mxCell id="FoQC7-eRkNToFo1l5HI7-376" value="payment_gate" style="ellipse;whiteSpace=wrap;html=1;" parent="FoQC7-eRkNToFo1l5HI7-364" vertex="1">
          <mxGeometry x="111" y="357.5" width="80" height="80" as="geometry" />
        </mxCell>
        <mxCell id="FoQC7-eRkNToFo1l5HI7-377" value="payment_code" style="ellipse;whiteSpace=wrap;html=1;" parent="FoQC7-eRkNToFo1l5HI7-364" vertex="1">
          <mxGeometry x="130" y="31" width="90" height="80" as="geometry" />
        </mxCell>
        <mxCell id="FoQC7-eRkNToFo1l5HI7-378" value="created_at" style="ellipse;whiteSpace=wrap;html=1;" parent="FoQC7-eRkNToFo1l5HI7-364" vertex="1">
          <mxGeometry x="300" y="61" width="80" height="80" as="geometry" />
        </mxCell>
        <mxCell id="FoQC7-eRkNToFo1l5HI7-379" value="updated_at" style="ellipse;whiteSpace=wrap;html=1;" parent="FoQC7-eRkNToFo1l5HI7-364" vertex="1">
          <mxGeometry x="200" y="357.5" width="80" height="80" as="geometry" />
        </mxCell>
        <mxCell id="FoQC7-eRkNToFo1l5HI7-380" value="amount" style="ellipse;whiteSpace=wrap;html=1;" parent="FoQC7-eRkNToFo1l5HI7-364" vertex="1">
          <mxGeometry x="300" y="340" width="80" height="80" as="geometry" />
        </mxCell>
        <mxCell id="FoQC7-eRkNToFo1l5HI7-382" value="type" style="ellipse;whiteSpace=wrap;html=1;" parent="FoQC7-eRkNToFo1l5HI7-364" vertex="1">
          <mxGeometry x="390" y="260" width="80" height="80" as="geometry" />
        </mxCell>
        <mxCell id="FoQC7-eRkNToFo1l5HI7-387" value="1" style="edgeStyle=orthogonalEdgeStyle;rounded=0;orthogonalLoop=1;jettySize=auto;html=1;" parent="1" source="FoQC7-eRkNToFo1l5HI7-385" target="FoQC7-eRkNToFo1l5HI7-159" edge="1">
          <mxGeometry relative="1" as="geometry">
            <Array as="points">
              <mxPoint x="11478" y="1018" />
            </Array>
          </mxGeometry>
        </mxCell>
        <mxCell id="FoQC7-eRkNToFo1l5HI7-385" value="Has&lt;div&gt;(دارد)&lt;/div&gt;" style="rhombus;whiteSpace=wrap;html=1;" parent="1" vertex="1">
          <mxGeometry x="10940" y="978" width="80" height="80" as="geometry" />
        </mxCell>
        <mxCell id="FoQC7-eRkNToFo1l5HI7-386" value="n" style="edgeStyle=orthogonalEdgeStyle;rounded=0;orthogonalLoop=1;jettySize=auto;html=1;shape=link;" parent="1" source="FoQC7-eRkNToFo1l5HI7-372" target="FoQC7-eRkNToFo1l5HI7-385" edge="1">
          <mxGeometry relative="1" as="geometry" />
        </mxCell>
        <mxCell id="FoQC7-eRkNToFo1l5HI7-388" value="" style="swimlane;startSize=0;" parent="1" vertex="1">
          <mxGeometry x="10780" y="-690" width="450" height="365" as="geometry" />
        </mxCell>
        <mxCell id="FoQC7-eRkNToFo1l5HI7-389" value="" style="edgeStyle=orthogonalEdgeStyle;rounded=0;orthogonalLoop=1;jettySize=auto;html=1;" parent="FoQC7-eRkNToFo1l5HI7-388" source="FoQC7-eRkNToFo1l5HI7-395" target="FoQC7-eRkNToFo1l5HI7-396" edge="1">
          <mxGeometry relative="1" as="geometry">
            <Array as="points">
              <mxPoint x="170" y="50" />
            </Array>
          </mxGeometry>
        </mxCell>
        <mxCell id="FoQC7-eRkNToFo1l5HI7-390" value="" style="edgeStyle=orthogonalEdgeStyle;rounded=0;orthogonalLoop=1;jettySize=auto;html=1;" parent="FoQC7-eRkNToFo1l5HI7-388" source="FoQC7-eRkNToFo1l5HI7-395" target="FoQC7-eRkNToFo1l5HI7-397" edge="1">
          <mxGeometry relative="1" as="geometry">
            <Array as="points">
              <mxPoint x="70" y="170" />
              <mxPoint x="70" y="170" />
            </Array>
          </mxGeometry>
        </mxCell>
        <mxCell id="FoQC7-eRkNToFo1l5HI7-391" value="" style="edgeStyle=orthogonalEdgeStyle;rounded=0;orthogonalLoop=1;jettySize=auto;html=1;" parent="FoQC7-eRkNToFo1l5HI7-388" source="FoQC7-eRkNToFo1l5HI7-395" target="FoQC7-eRkNToFo1l5HI7-398" edge="1">
          <mxGeometry relative="1" as="geometry">
            <Array as="points">
              <mxPoint x="120" y="230" />
            </Array>
          </mxGeometry>
        </mxCell>
        <mxCell id="FoQC7-eRkNToFo1l5HI7-393" value="" style="edgeStyle=orthogonalEdgeStyle;rounded=0;orthogonalLoop=1;jettySize=auto;html=1;" parent="FoQC7-eRkNToFo1l5HI7-388" source="FoQC7-eRkNToFo1l5HI7-395" target="FoQC7-eRkNToFo1l5HI7-400" edge="1">
          <mxGeometry relative="1" as="geometry">
            <Array as="points">
              <mxPoint x="260" y="220" />
              <mxPoint x="260" y="220" />
            </Array>
          </mxGeometry>
        </mxCell>
        <mxCell id="FoQC7-eRkNToFo1l5HI7-394" value="" style="edgeStyle=orthogonalEdgeStyle;rounded=0;orthogonalLoop=1;jettySize=auto;html=1;" parent="FoQC7-eRkNToFo1l5HI7-388" source="FoQC7-eRkNToFo1l5HI7-395" target="FoQC7-eRkNToFo1l5HI7-401" edge="1">
          <mxGeometry relative="1" as="geometry">
            <Array as="points">
              <mxPoint x="160" y="240" />
              <mxPoint x="150" y="240" />
            </Array>
          </mxGeometry>
        </mxCell>
        <mxCell id="SLRZLLJ1CSl9nlgfsExv-3" style="edgeStyle=orthogonalEdgeStyle;rounded=0;orthogonalLoop=1;jettySize=auto;html=1;" parent="FoQC7-eRkNToFo1l5HI7-388" source="FoQC7-eRkNToFo1l5HI7-395" target="FoQC7-eRkNToFo1l5HI7-399" edge="1">
          <mxGeometry relative="1" as="geometry">
            <Array as="points">
              <mxPoint x="310" y="115" />
            </Array>
          </mxGeometry>
        </mxCell>
        <mxCell id="FoQC7-eRkNToFo1l5HI7-395" value="&lt;span style=&quot;font-size: 22px;&quot;&gt;&lt;b&gt;comments&lt;/b&gt;&lt;/span&gt;&lt;div&gt;&lt;span style=&quot;font-size: 22px;&quot;&gt;&lt;b&gt;(کامنت)&lt;/b&gt;&lt;/span&gt;&lt;/div&gt;" style="whiteSpace=wrap;html=1;align=center;" parent="FoQC7-eRkNToFo1l5HI7-388" vertex="1">
          <mxGeometry x="110" y="135" width="240" height="70" as="geometry" />
        </mxCell>
        <mxCell id="FoQC7-eRkNToFo1l5HI7-396" value="id" style="ellipse;whiteSpace=wrap;html=1;" parent="FoQC7-eRkNToFo1l5HI7-388" vertex="1">
          <mxGeometry x="20" y="10" width="80" height="80" as="geometry" />
        </mxCell>
        <mxCell id="FoQC7-eRkNToFo1l5HI7-397" value="user_id" style="ellipse;whiteSpace=wrap;html=1;" parent="FoQC7-eRkNToFo1l5HI7-388" vertex="1">
          <mxGeometry y="110" width="80" height="80" as="geometry" />
        </mxCell>
        <mxCell id="FoQC7-eRkNToFo1l5HI7-398" value="user_id" style="ellipse;whiteSpace=wrap;html=1;" parent="FoQC7-eRkNToFo1l5HI7-388" vertex="1">
          <mxGeometry y="205" width="80" height="80" as="geometry" />
        </mxCell>
        <mxCell id="FoQC7-eRkNToFo1l5HI7-399" value="content" style="ellipse;whiteSpace=wrap;html=1;" parent="FoQC7-eRkNToFo1l5HI7-388" vertex="1">
          <mxGeometry x="360" y="70" width="80" height="80" as="geometry" />
        </mxCell>
        <mxCell id="FoQC7-eRkNToFo1l5HI7-400" value="created_at" style="ellipse;whiteSpace=wrap;html=1;" parent="FoQC7-eRkNToFo1l5HI7-388" vertex="1">
          <mxGeometry x="250" y="250" width="80" height="80" as="geometry" />
        </mxCell>
        <mxCell id="FoQC7-eRkNToFo1l5HI7-401" value="updated_at" style="ellipse;whiteSpace=wrap;html=1;" parent="FoQC7-eRkNToFo1l5HI7-388" vertex="1">
          <mxGeometry x="110" y="275" width="80" height="80" as="geometry" />
        </mxCell>
        <mxCell id="FoQC7-eRkNToFo1l5HI7-402" value="answer_to" style="ellipse;whiteSpace=wrap;html=1;" parent="FoQC7-eRkNToFo1l5HI7-388" vertex="1">
          <mxGeometry x="270" y="10" width="80" height="80" as="geometry" />
        </mxCell>
        <mxCell id="FoQC7-eRkNToFo1l5HI7-403" value="" style="edgeStyle=orthogonalEdgeStyle;rounded=0;orthogonalLoop=1;jettySize=auto;html=1;" parent="FoQC7-eRkNToFo1l5HI7-388" source="FoQC7-eRkNToFo1l5HI7-395" target="FoQC7-eRkNToFo1l5HI7-402" edge="1">
          <mxGeometry relative="1" as="geometry">
            <Array as="points">
              <mxPoint x="280" y="130" />
              <mxPoint x="280" y="130" />
            </Array>
          </mxGeometry>
        </mxCell>
        <mxCell id="FoQC7-eRkNToFo1l5HI7-406" value="1" style="edgeStyle=orthogonalEdgeStyle;rounded=0;orthogonalLoop=1;jettySize=auto;html=1;" parent="1" source="FoQC7-eRkNToFo1l5HI7-404" target="FoQC7-eRkNToFo1l5HI7-234" edge="1">
          <mxGeometry relative="1" as="geometry" />
        </mxCell>
        <mxCell id="FoQC7-eRkNToFo1l5HI7-404" value="تعلق داشتن" style="rhombus;whiteSpace=wrap;html=1;" parent="1" vertex="1">
          <mxGeometry x="10950" y="-260" width="80" height="80" as="geometry" />
        </mxCell>
        <mxCell id="FoQC7-eRkNToFo1l5HI7-405" value="m" style="edgeStyle=orthogonalEdgeStyle;rounded=0;orthogonalLoop=1;jettySize=auto;html=1;shape=link;" parent="1" source="FoQC7-eRkNToFo1l5HI7-395" target="FoQC7-eRkNToFo1l5HI7-404" edge="1">
          <mxGeometry relative="1" as="geometry" />
        </mxCell>
        <mxCell id="FoQC7-eRkNToFo1l5HI7-409" value="1" style="edgeStyle=orthogonalEdgeStyle;rounded=0;orthogonalLoop=1;jettySize=auto;html=1;" parent="1" source="FoQC7-eRkNToFo1l5HI7-407" target="FoQC7-eRkNToFo1l5HI7-25" edge="1">
          <mxGeometry relative="1" as="geometry">
            <Array as="points">
              <mxPoint x="11720" y="-120" />
              <mxPoint x="11720" y="-120" />
            </Array>
          </mxGeometry>
        </mxCell>
        <mxCell id="FoQC7-eRkNToFo1l5HI7-407" value="نوشته شدن" style="rhombus;whiteSpace=wrap;html=1;" parent="1" vertex="1">
          <mxGeometry x="11300" y="-270" width="80" height="80" as="geometry" />
        </mxCell>
        <mxCell id="FoQC7-eRkNToFo1l5HI7-408" value="m" style="edgeStyle=orthogonalEdgeStyle;rounded=0;orthogonalLoop=1;jettySize=auto;html=1;shape=link;" parent="1" source="FoQC7-eRkNToFo1l5HI7-395" target="FoQC7-eRkNToFo1l5HI7-407" edge="1">
          <mxGeometry relative="1" as="geometry">
            <mxPoint x="10970" y="-550" as="sourcePoint" />
          </mxGeometry>
        </mxCell>
        <mxCell id="FoQC7-eRkNToFo1l5HI7-412" value="1" style="edgeStyle=orthogonalEdgeStyle;rounded=0;orthogonalLoop=1;jettySize=auto;html=1;" parent="1" source="FoQC7-eRkNToFo1l5HI7-410" target="FoQC7-eRkNToFo1l5HI7-395" edge="1">
          <mxGeometry relative="1" as="geometry">
            <Array as="points">
              <mxPoint x="10990" y="-660" />
              <mxPoint x="10990" y="-660" />
            </Array>
          </mxGeometry>
        </mxCell>
        <mxCell id="FoQC7-eRkNToFo1l5HI7-410" value="در جواب" style="rhombus;whiteSpace=wrap;html=1;" parent="1" vertex="1">
          <mxGeometry x="10970" y="-860" width="80" height="80" as="geometry" />
        </mxCell>
        <mxCell id="FoQC7-eRkNToFo1l5HI7-411" value="m" style="edgeStyle=orthogonalEdgeStyle;rounded=0;orthogonalLoop=1;jettySize=auto;html=1;" parent="1" source="FoQC7-eRkNToFo1l5HI7-395" target="FoQC7-eRkNToFo1l5HI7-410" edge="1">
          <mxGeometry relative="1" as="geometry">
            <Array as="points">
              <mxPoint x="11030" y="-590" />
              <mxPoint x="11030" y="-590" />
            </Array>
          </mxGeometry>
        </mxCell>
        <mxCell id="FoQC7-eRkNToFo1l5HI7-413" value="" style="swimlane;startSize=0;" parent="1" vertex="1">
          <mxGeometry x="11600" y="-690" width="450" height="365" as="geometry" />
        </mxCell>
        <mxCell id="FoQC7-eRkNToFo1l5HI7-414" value="" style="edgeStyle=orthogonalEdgeStyle;rounded=0;orthogonalLoop=1;jettySize=auto;html=1;" parent="FoQC7-eRkNToFo1l5HI7-413" source="FoQC7-eRkNToFo1l5HI7-420" target="FoQC7-eRkNToFo1l5HI7-421" edge="1">
          <mxGeometry relative="1" as="geometry">
            <Array as="points">
              <mxPoint x="170" y="130" />
            </Array>
          </mxGeometry>
        </mxCell>
        <mxCell id="FoQC7-eRkNToFo1l5HI7-415" value="" style="edgeStyle=orthogonalEdgeStyle;rounded=0;orthogonalLoop=1;jettySize=auto;html=1;" parent="FoQC7-eRkNToFo1l5HI7-413" source="FoQC7-eRkNToFo1l5HI7-420" target="FoQC7-eRkNToFo1l5HI7-422" edge="1">
          <mxGeometry relative="1" as="geometry">
            <Array as="points">
              <mxPoint x="100" y="170" />
              <mxPoint x="100" y="235" />
            </Array>
          </mxGeometry>
        </mxCell>
        <mxCell id="FoQC7-eRkNToFo1l5HI7-416" value="" style="edgeStyle=orthogonalEdgeStyle;rounded=0;orthogonalLoop=1;jettySize=auto;html=1;" parent="FoQC7-eRkNToFo1l5HI7-413" source="FoQC7-eRkNToFo1l5HI7-420" target="FoQC7-eRkNToFo1l5HI7-423" edge="1">
          <mxGeometry relative="1" as="geometry">
            <Array as="points">
              <mxPoint x="290" y="50" />
              <mxPoint x="290" y="50" />
            </Array>
          </mxGeometry>
        </mxCell>
        <mxCell id="FoQC7-eRkNToFo1l5HI7-417" value="" style="edgeStyle=orthogonalEdgeStyle;rounded=0;orthogonalLoop=1;jettySize=auto;html=1;" parent="FoQC7-eRkNToFo1l5HI7-413" source="FoQC7-eRkNToFo1l5HI7-420" target="FoQC7-eRkNToFo1l5HI7-424" edge="1">
          <mxGeometry relative="1" as="geometry">
            <Array as="points" />
          </mxGeometry>
        </mxCell>
        <mxCell id="FoQC7-eRkNToFo1l5HI7-418" value="" style="edgeStyle=orthogonalEdgeStyle;rounded=0;orthogonalLoop=1;jettySize=auto;html=1;" parent="FoQC7-eRkNToFo1l5HI7-413" source="FoQC7-eRkNToFo1l5HI7-420" target="FoQC7-eRkNToFo1l5HI7-425" edge="1">
          <mxGeometry relative="1" as="geometry">
            <Array as="points">
              <mxPoint x="260" y="220" />
              <mxPoint x="260" y="220" />
            </Array>
          </mxGeometry>
        </mxCell>
        <mxCell id="FoQC7-eRkNToFo1l5HI7-419" value="" style="edgeStyle=orthogonalEdgeStyle;rounded=0;orthogonalLoop=1;jettySize=auto;html=1;" parent="FoQC7-eRkNToFo1l5HI7-413" source="FoQC7-eRkNToFo1l5HI7-420" target="FoQC7-eRkNToFo1l5HI7-426" edge="1">
          <mxGeometry relative="1" as="geometry">
            <Array as="points">
              <mxPoint x="160" y="240" />
              <mxPoint x="150" y="240" />
            </Array>
          </mxGeometry>
        </mxCell>
        <mxCell id="FoQC7-eRkNToFo1l5HI7-420" value="&lt;span style=&quot;font-size: 22px;&quot;&gt;&lt;b&gt;likes&lt;/b&gt;&lt;/span&gt;&lt;div&gt;&lt;span style=&quot;font-size: 22px;&quot;&gt;&lt;b&gt;(علاقه مندی)&lt;/b&gt;&lt;/span&gt;&lt;/div&gt;" style="whiteSpace=wrap;html=1;align=center;" parent="FoQC7-eRkNToFo1l5HI7-413" vertex="1">
          <mxGeometry x="110" y="135" width="240" height="70" as="geometry" />
        </mxCell>
        <mxCell id="FoQC7-eRkNToFo1l5HI7-421" value="id" style="ellipse;whiteSpace=wrap;html=1;" parent="FoQC7-eRkNToFo1l5HI7-413" vertex="1">
          <mxGeometry x="20" y="10" width="80" height="80" as="geometry" />
        </mxCell>
        <mxCell id="FoQC7-eRkNToFo1l5HI7-422" value="user_id" style="ellipse;whiteSpace=wrap;html=1;" parent="FoQC7-eRkNToFo1l5HI7-413" vertex="1">
          <mxGeometry y="195" width="80" height="80" as="geometry" />
        </mxCell>
        <mxCell id="FoQC7-eRkNToFo1l5HI7-423" value="title" style="ellipse;whiteSpace=wrap;html=1;" parent="FoQC7-eRkNToFo1l5HI7-413" vertex="1">
          <mxGeometry x="340" y="10" width="80" height="80" as="geometry" />
        </mxCell>
        <mxCell id="FoQC7-eRkNToFo1l5HI7-424" value="content" style="ellipse;whiteSpace=wrap;html=1;" parent="FoQC7-eRkNToFo1l5HI7-413" vertex="1">
          <mxGeometry x="350" y="90" width="80" height="80" as="geometry" />
        </mxCell>
        <mxCell id="FoQC7-eRkNToFo1l5HI7-425" value="created_at" style="ellipse;whiteSpace=wrap;html=1;" parent="FoQC7-eRkNToFo1l5HI7-413" vertex="1">
          <mxGeometry x="240" y="220" width="80" height="80" as="geometry" />
        </mxCell>
        <mxCell id="FoQC7-eRkNToFo1l5HI7-426" value="updated_at" style="ellipse;whiteSpace=wrap;html=1;" parent="FoQC7-eRkNToFo1l5HI7-413" vertex="1">
          <mxGeometry x="110" y="275" width="80" height="80" as="geometry" />
        </mxCell>
        <mxCell id="FoQC7-eRkNToFo1l5HI7-427" value="cover_picture" style="ellipse;whiteSpace=wrap;html=1;" parent="FoQC7-eRkNToFo1l5HI7-413" vertex="1">
          <mxGeometry x="360" y="240" width="80" height="80" as="geometry" />
        </mxCell>
        <mxCell id="FoQC7-eRkNToFo1l5HI7-428" value="" style="edgeStyle=orthogonalEdgeStyle;rounded=0;orthogonalLoop=1;jettySize=auto;html=1;" parent="FoQC7-eRkNToFo1l5HI7-413" source="FoQC7-eRkNToFo1l5HI7-420" target="FoQC7-eRkNToFo1l5HI7-427" edge="1">
          <mxGeometry relative="1" as="geometry">
            <Array as="points">
              <mxPoint x="170" y="210" />
            </Array>
          </mxGeometry>
        </mxCell>
        <mxCell id="FoQC7-eRkNToFo1l5HI7-432" value="m" style="edgeStyle=orthogonalEdgeStyle;rounded=0;orthogonalLoop=1;jettySize=auto;html=1;shape=link;" parent="1" source="FoQC7-eRkNToFo1l5HI7-430" target="FoQC7-eRkNToFo1l5HI7-420" edge="1">
          <mxGeometry relative="1" as="geometry" />
        </mxCell>
        <mxCell id="FoQC7-eRkNToFo1l5HI7-430" value="تعلق داشتن" style="rhombus;whiteSpace=wrap;html=1;" parent="1" vertex="1">
          <mxGeometry x="11770" y="-280" width="80" height="80" as="geometry" />
        </mxCell>
        <mxCell id="FoQC7-eRkNToFo1l5HI7-431" value="1" style="edgeStyle=orthogonalEdgeStyle;rounded=0;orthogonalLoop=1;jettySize=auto;html=1;" parent="1" source="FoQC7-eRkNToFo1l5HI7-25" target="FoQC7-eRkNToFo1l5HI7-430" edge="1">
          <mxGeometry relative="1" as="geometry">
            <Array as="points">
              <mxPoint x="11770" y="-70" />
              <mxPoint x="11750" y="-70" />
              <mxPoint x="11750" y="-240" />
            </Array>
          </mxGeometry>
        </mxCell>
        <mxCell id="FoQC7-eRkNToFo1l5HI7-435" value="1" style="edgeStyle=orthogonalEdgeStyle;rounded=0;orthogonalLoop=1;jettySize=auto;html=1;" parent="1" source="FoQC7-eRkNToFo1l5HI7-433" target="FoQC7-eRkNToFo1l5HI7-234" edge="1">
          <mxGeometry relative="1" as="geometry">
            <Array as="points">
              <mxPoint x="10546" y="-55" />
            </Array>
          </mxGeometry>
        </mxCell>
        <mxCell id="FoQC7-eRkNToFo1l5HI7-433" value="تعلق داشتن" style="rhombus;whiteSpace=wrap;html=1;" parent="1" vertex="1">
          <mxGeometry x="10506" y="-300" width="80" height="80" as="geometry" />
        </mxCell>
        <mxCell id="FoQC7-eRkNToFo1l5HI7-434" value="n" style="edgeStyle=orthogonalEdgeStyle;rounded=0;orthogonalLoop=1;jettySize=auto;html=1;shape=link;" parent="1" source="FoQC7-eRkNToFo1l5HI7-420" target="FoQC7-eRkNToFo1l5HI7-433" edge="1">
          <mxGeometry relative="1" as="geometry">
            <mxPoint x="11420" y="-390" as="sourcePoint" />
            <Array as="points">
              <mxPoint x="11830" y="-950" />
              <mxPoint x="10546" y="-950" />
            </Array>
          </mxGeometry>
        </mxCell>
      </root>
    </mxGraphModel>
  </diagram>
</mxfile>
